<svg xmlns="http://www.w3.org/2000/svg" width="36.522" height="36.522" viewBox="0 0 36.522 36.522">
  <g id="Group_4038" data-name="Group 4038" transform="translate(-884 2500.73)">
    <path id="Path_10741" data-name="Path 10741" d="M29,36.522H7.52A7.52,7.52,0,0,1,0,29V7.52A7.52,7.52,0,0,1,7.52,0H29a7.52,7.52,0,0,1,7.52,7.52V29A7.52,7.52,0,0,1,29,36.522" transform="translate(884 -2500.73)" fill="#065885"/>
    <path id="Path_10742" data-name="Path 10742" d="M117.763,65.73V76.875h-5.125V65.73h-4.253V61.213h4.253V59.562c0-6.106,2.547-9.314,7.944-9.314a8.863,8.863,0,0,1,2.977.482V55.2a10.216,10.216,0,0,0-2.357-.273,2.939,2.939,0,0,0-2.526,1.05,5.589,5.589,0,0,0-.913,3.639v1.6h5.8l-1.558,4.517Z" transform="translate(786.287 -2546.031)" fill="#fff"/>
  </g>
</svg>
