<svg xmlns="http://www.w3.org/2000/svg" xmlns:xlink="http://www.w3.org/1999/xlink" width="36.532" height="36.522" viewBox="0 0 36.532 36.522">
  <defs>
    <radialGradient id="radial-gradient" cx="0.266" cy="1.077" r="0.991" gradientTransform="translate(-2.918 5.666) rotate(-90) scale(1 0.93)" gradientUnits="objectBoundingBox">
      <stop offset="0" stop-color="#fd5"/>
      <stop offset="0.1" stop-color="#fd5"/>
      <stop offset="0.5" stop-color="#ff543e"/>
      <stop offset="1" stop-color="#c837ab"/>
    </radialGradient>
  </defs>
  <g id="Group_4039" data-name="Group 4039" transform="translate(-929.715 2500.73)">
    <path id="Path_10865" data-name="Path 10865" d="M18.268,0C10.643,0,8.412.008,7.979.044a9.062,9.062,0,0,0-3.6.9,7.292,7.292,0,0,0-2.1,1.536A7.839,7.839,0,0,0,.165,6.927,32.964,32.964,0,0,0,0,12.318c0,1.454,0,3.368,0,5.935,0,7.62.008,9.848.045,10.28a9.174,9.174,0,0,0,.871,3.529A7.7,7.7,0,0,0,5.9,36.137a12.959,12.959,0,0,0,2.652.351c.452.02,5.063.034,9.676.034s9.227-.006,9.668-.028a12.479,12.479,0,0,0,2.748-.36,7.648,7.648,0,0,0,4.987-4.082,9.024,9.024,0,0,0,.861-3.461c.025-.315.035-5.332.035-10.342S36.517,8.23,36.492,7.915a8.923,8.923,0,0,0-.879-3.5A7.24,7.24,0,0,0,34.05,2.278,7.886,7.886,0,0,0,29.6.167,32.918,32.918,0,0,0,24.213,0Z" transform="translate(929.719 -2500.73)" fill="url(#radial-gradient)"/>
    <path id="Path_10866" data-name="Path 10866" d="M18.268,0C10.643,0,8.412.008,7.979.044a9.062,9.062,0,0,0-3.6.9,7.292,7.292,0,0,0-2.1,1.536A7.839,7.839,0,0,0,.165,6.927,32.964,32.964,0,0,0,0,12.318c0,1.454,0,3.368,0,5.935,0,7.62.008,9.848.045,10.28a9.174,9.174,0,0,0,.871,3.529A7.7,7.7,0,0,0,5.9,36.137a12.959,12.959,0,0,0,2.652.351c.452.02,5.063.034,9.676.034s9.227-.006,9.668-.028a12.479,12.479,0,0,0,2.748-.36,7.648,7.648,0,0,0,4.987-4.082,9.024,9.024,0,0,0,.861-3.461c.025-.315.035-5.332.035-10.342S36.517,8.23,36.492,7.915a8.923,8.923,0,0,0-.879-3.5A7.24,7.24,0,0,0,34.05,2.278,7.886,7.886,0,0,0,29.6.167,32.918,32.918,0,0,0,24.213,0Z" transform="translate(929.719 -2500.73)" fill="#065885"/>
    <path id="Path_10867" data-name="Path 10867" d="M31.487,18c-3.663,0-4.122.016-5.561.081a9.9,9.9,0,0,0-3.273.627,6.9,6.9,0,0,0-3.946,3.944,9.851,9.851,0,0,0-.627,3.273c-.064,1.439-.081,1.9-.081,5.561s.016,4.121.081,5.559a9.911,9.911,0,0,0,.627,3.273,6.9,6.9,0,0,0,3.944,3.946,9.9,9.9,0,0,0,3.274.627c1.439.065,1.9.081,5.56.081s4.121-.016,5.56-.081a9.911,9.911,0,0,0,3.275-.627,6.91,6.91,0,0,0,3.944-3.945,10,10,0,0,0,.627-3.273c.065-1.439.081-1.9.081-5.56s-.017-4.122-.081-5.561a9.991,9.991,0,0,0-.627-3.273,6.9,6.9,0,0,0-3.945-3.944,9.928,9.928,0,0,0-3.276-.627c-1.439-.065-1.9-.081-5.56-.081Zm-1.21,2.43h1.21c3.6,0,4.028.013,5.449.078a7.466,7.466,0,0,1,2.5.464A4.469,4.469,0,0,1,42,23.532a7.451,7.451,0,0,1,.464,2.5c.065,1.422.079,1.849.079,5.448s-.014,4.026-.079,5.448a7.459,7.459,0,0,1-.464,2.5,4.472,4.472,0,0,1-2.559,2.558,7.439,7.439,0,0,1-2.5.465c-1.422.065-1.849.079-5.449.079s-4.028-.014-5.449-.079a7.481,7.481,0,0,1-2.5-.465,4.468,4.468,0,0,1-2.56-2.559,7.452,7.452,0,0,1-.464-2.5c-.065-1.422-.078-1.849-.078-5.45s.013-4.026.078-5.448a7.467,7.467,0,0,1,.464-2.5,4.469,4.469,0,0,1,2.56-2.56,7.45,7.45,0,0,1,2.5-.465c1.244-.056,1.726-.073,4.24-.076Zm8.409,2.239A1.618,1.618,0,1,0,40.3,24.287a1.618,1.618,0,0,0-1.618-1.618Zm-7.2,1.891a6.925,6.925,0,1,0,6.925,6.926,6.926,6.926,0,0,0-6.925-6.926Zm0,2.43a4.5,4.5,0,1,1-4.5,4.5A4.5,4.5,0,0,1,31.487,26.991Z" transform="translate(916.49 -2513.954)" fill="#fff"/>
  </g>
</svg>
