<svg xmlns="http://www.w3.org/2000/svg" width="1667.487" height="657.738"><defs><filter id="a" width="147.809" height="219.824" x="1284.636" y="18.035" filterUnits="userSpaceOnUse"><feOffset dx="3" dy="3"/><feGaussianBlur result="blur" stdDeviation="1"/><feFlood flood-opacity=".161"/><feComposite in2="blur" operator="in"/><feComposite in="SourceGraphic"/></filter><filter id="b" width="47.856" height="56.848" x="1123" y="511.434" filterUnits="userSpaceOnUse"><feOffset dx="3" dy="4"/><feGaussianBlur result="blur-2" stdDeviation="3"/><feFlood flood-opacity=".161"/><feComposite in2="blur-2" operator="in"/><feComposite in="SourceGraphic"/></filter><filter id="c" width="47.493" height="56.756" x="1060.509" y="511.395" filterUnits="userSpaceOnUse"><feOffset dx="3" dy="4"/><feGaussianBlur result="blur-3" stdDeviation="3"/><feFlood flood-opacity=".161"/><feComposite in2="blur-3" operator="in"/><feComposite in="SourceGraphic"/></filter><filter id="d" width="40.158" height="72.167" x="1096.168" y="503.637" filterUnits="userSpaceOnUse"><feOffset dx="3" dy="4"/><feGaussianBlur result="blur-4" stdDeviation="3"/><feFlood flood-opacity=".161"/><feComposite in2="blur-4" operator="in"/><feComposite in="SourceGraphic"/></filter></defs><g data-name="Group 7719"><g data-name="Group 7718"><path fill="#08bfe6" fill-rule="evenodd" d="m382.529 403.251 14.651-.191.2 6.866c-2.483.291-12.888.429-14.842-.139l-.007-6.536Zm-29.414-.033 14.67-.145.125 6.88c-2.634.218-12.71.416-14.783-.185l-.013-6.55Zm59.745 4.661-2.3-6.233c1.967-1.162 3.73-1.756 5.665-3.063 1.855-1.261 3.215-2.865 4.773-3.889a17.549 17.549 0 0 1 5.269 4.206c-1.228 2.971-9.976 8.5-13.409 8.973Zm13.918-37.039c1.644-.726 5.077-1.862 6.8-1.5a36.452 36.452 0 0 1 .475 15.067c-1.948.6-5.137-.482-7.144-1.155 1.228-10.544-.317-8.213-.132-12.412Zm-15.713-23.789c3.7.429 12.327 5.2 14.056 8.319l-5.011 4.457c-1.5-.852-3.275-2.522-5-3.625-2.014-1.288-3.935-1.71-5.856-2.786l1.809-6.365Zm-24.614-1.961 9.184.456-.178 6.959-9.184-.416.185-7Zm-28.918.086 14.307.073v6.886l-14.486-.073.185-6.88Zm-28.866.007 14.373.013-.046 6.952-14.439-.218.112-6.754Zm-57.909.02 14.6.059-.106 6.906-14.439-.092-.059-6.873Zm-28.681-.04 14.354.112-.02 6.853-14.512-.079.185-6.886Zm-28.819.013 14.294.073.02 6.919-14.505-.185.191-6.807Zm-28.938 0 14.334.046v6.959l-14.413-.277.086-6.728Zm-28.938.033h14.571l-.139 6.952-14.42-.066-.013-6.886Zm-28.661-.046 14.248.158.059 6.8-14.479-.066.165-6.893Zm-28.912.007 14.288.092v6.88l-14.475-.08Zm201.828.013 14.525.119c.026 2.119.324 4.8-.3 6.84l-14.182-.02-.046-6.939Zm-229.492-2.632c3.473.1 8.847 2.02 13.456 2.278l-.607 6.932c-3.823-.185-11.316-1.353-14.935-2.766Zm-24.508-12.448c1.512.357 11.2 6.807 11.8 7.428l-3.037 5.638c-2.951-.469-10.656-5.685-12.683-8.081l3.922-4.985Zm-22.739-17.576a15.012 15.012 0 0 1 6.068-3l7.23 10.993c-1.076 1.314-3.961 3.625-5.586 4.034-2.3-4.034-6.332-7.48-7.712-12.023Zm-1.2-28.476c.185 4.833 1.657 8.577 2.119 12.967l-6.82 1.624c-1.023-5.038-2.3-9.012-2.456-14.42l7.157-.172Zm-6.787-14.261c.165-3.651 1.545-11.449 3.4-14.3a16.127 16.127 0 0 1 6.4 2.192c-.6 4.133-2.238 8.035-2.74 12.782l-7.071-.673Zm9.772-27.7c.37-2.872 6.292-9.336 8.293-11.838 1.769.4 4.12 2.839 5.407 4.278l-7.632 10.57c-2.053-.2-4.331-1.882-6.068-3.011Zm19.972-22.276c2.832-2.185 9.593-6.7 12.848-7.177l2.681 5.836-11.607 6.926c-1.32-1.426-3.645-3.816-3.915-5.586Zm85.243-14.6 14.42.033-.092 6.906-14.406-.172.079-6.774Zm-28.714-.007 14.307-.026-.152 6.965-14.307-.007.152-6.932Zm-29.579 2.357c2.357-1.426 11.884-2.212 14.928-2.2l.053 6.906c-4.826.2-9.171 1.466-13.5 1.73Zm261.7 181.545.059 14 5.117.079-.046 6.754-5 .2-.145 14.162c3.413-1.776 64.129.931 77.558-1.235 5.546-.891 14.321-4.292 18.421-7.863.581-.5.165-.225.733-.6 10.379-6.952 18.15-20.223 18.6-32.635.073-2.086.654-3.281.456-5.777-.356-4.49-1.657-12.677-3.743-16.308-3.955-6.893-5.242-9.785-11.072-15.661-3.354-3.38-11.653-8.616-16.367-9.917a97.693 97.693 0 0 0-10.419-2.5c-4.166-.726-8.841.409-13.1-.264-5.652-.9-43.747-.343-52.667-.343h-237c-9.8 0-26.211.726-35.349-3.856-8.174-4.1-9.184-4.047-17.146-10.92-11.873-10.262-19.057-30.241-15.564-47.057a78.42 78.42 0 0 1 3.829-12.217l6.5-10.432c.033-.053.515-.779.528-.805a3.714 3.714 0 0 1 .9-.885 6.469 6.469 0 0 0 1.684-1.882l5.255-4.991c.073-.059.191-.125.264-.178 5.143-3.823 13.059-8.775 19.253-9.7 1.776-.264 3.07-1 4.932-1.3 10.986-1.756 60.24-.931 72.131-.931 0 4.978-.607 35.455.337 37.422-.759-11.191-.178-25.1-.092-36.531.066-8.755-1.017-28.4.555-35.64H87.322a84.943 84.943 0 0 0-17.4 2.2c-1.888.383-3.565.819-5.407 1.274-.581.145-1.981.442-2.5.627l-7.381 2.865c-3.9 1.34-5.3 2.456-8.742 4.179s-3.374 2.185-6.18 3.618l-9.415 7.065c-2.535 1.842-3.321 3.295-4.694 4.661-10.4 10.4-16.995 20.619-21.847 35.177-4.991 14.974-5 36.419-.026 51.327 3 8.992 4.021 9.448 7.025 16.143 1.479 3.295 7.461 10.966 9.626 13.535a82.473 82.473 0 0 0 13.3 12.987l3.618 2.621c2.7 2.205 6.668 4.008 8.227 5.143 2.72 1.981 14.855 6.926 18.605 7.679 1.644.33 3.539.957 5.289 1.393 8.233 2.06 15.681 2.139 24.587 2.139h289.559c4.45 0 8.319.442 12.921.442 5.1 0 7.005-.759 11.415 1.948 7.5 4.6 5.751 14.512 1.591 17.741-3.757 2.918-4.965 3.037-9.89 3.031h-66.3Z" data-name="Path 31131"/><path fill="#08bfe6" fill-rule="evenodd" d="m839.539 366.613 7.177-.211.033 13.607-7.17.106-.04-13.5Zm.106-27.538 6.972-.112.119 13.759c-8.636.753-7.236-.436-7.2-2.793.059-3.473-.211-7.461.1-10.848Zm-.119-27.222 7.124-.211.1 13.588-7.124.033-.106-13.409Zm.3-27.393 6.794-.251.1 13.707-7.078.086c-.238-2.35-.489-11.884.185-13.542Zm-.284-27.387 7.144-.251.02 13.891-7-.02-.165-13.627Zm.04-27.545 6.965-.073.219 13.729-7.13.066Zm-.02-27.288 7.1-.145.073 13.773-7.051.059-.112-13.693Zm.007-27.519 6.972-.046.211 13.713-7.091.066Zm.066-27.222 6.992-.145.092 13.74-6.893.033c-.634-1.756-.462-11.528-.2-13.627Zm-.264-27.294 7.157-.436.251 13.832-7.183.092-.225-13.489Zm-5.387-25.967 6.767-2.126c1.063 4.259 3.229 9.4 3.5 13.687l-6.655 1.367-3.611-12.934Zm-206.674 1.36a17.453 17.453 0 0 1-6.4-1.855c.046-2.819 3.354-11.006 5.011-12.96l6.206 2.621-4.807 12.188Zm195.03-25.014c1.043-1.076 4.476-3.314 5.837-3.532 1.7 2.205 6.173 9.441 6.708 12a16.331 16.331 0 0 1-6.451 2.865c-.878-3.173-4.563-7.98-6.094-11.333Zm-189.362-2.08c.436-2.086 6.5-10.531 8.6-11.495l4.991 3.572c-.931 3.724-6.14 7.15-7.381 11.171-2.41-.687-3.928-2.139-6.219-3.248Zm171.866-17.972c.594-1.8 3.024-4.021 4.628-5.031 1.743.964 8.874 8.233 9.844 10.082l-5.414 4.2-9.058-9.25Zm-153.591-4.609c3.215-1.994 7.936-7.626 11.231-8.306 1 1.182 3.314 3.909 3.757 5.328l-9.95 8.22a12.548 12.548 0 0 1-5.038-5.236Zm131.36-10.739a17.018 17.018 0 0 1 3.249-6.087c2.72.9 9.613 5.209 11.964 7.183-.515 1.934-2.443 4.232-3.981 5.553Zm-107.816-5.588c2.073-1.6 10.082-5.374 12.789-5.87l2.39 6.312c-1.842.918-10.973 5.3-12.366 5.269-1.043-1.637-2.621-3.9-2.812-5.711Zm83.936-10.623c2.337-.132 11.481 2.806 13.68 3.935-.139 1.816-1.387 4.43-2.232 6.147-2.324.172-9.474-3.011-13.132-3.453l1.69-6.629Zm-57.229.363c2.258-1.538 11.587-2.714 14.1-2.793.218 2.265.9 4.589.594 6.721l-13.271 2.4-1.426-6.325Zm28.5-3.763c3.288-.654 10.537.277 14.406.482l-.581 6.873-13.865-.766.04-6.6Zm-127.682 90.253 37.865.033c-.456-.654.72-.535-.891-.535 1.235-2.7 2.786-9.646 5.638-15.3.6-1.182 1.03-2.225 1.545-3.361a26.794 26.794 0 0 1 1.994-3.347l2.04-3.308c4.384-6.1 5.632-8.722 11.62-14.664l5.15-5.1c8.075-6.3 8.557-7.045 18.606-13.02a54.2 54.2 0 0 1 7.045-3.2c1.294-.522 2.357-1.083 3.684-1.657 1.413-.607 2.5-.706 4.021-1.32 7.566-3.063 28.179-6.068 37.013-4.668l17.892 3.044a78.393 78.393 0 0 1 7.89 2.357 8.691 8.691 0 0 1 1.855.819l5.605 2.416c16.6 6.655 35.217 23.96 43.49 40.268a130.768 130.768 0 0 1 6.285 14.651 40.046 40.046 0 0 1 2.212 8.035c.231 1.466.673 2.6.964 4.377 2.72 16.4 1.67 69.985 1.67 87.428v251.264h14.351l-.139-57.084 7.038.007c.99 44.975.291 94.579.291 140.386 0 5.084-.469 14.71.284 19.266V451.038c3.11 0 11.059.528 13.515-.29.911-2.72.29-194.162.29-202.4V147.223c0-16.856.158-31.7-3.374-47.412-3.836-17.054-13.588-37.006-25.135-50.6-3.8-4.476-8.141-8.761-12.366-13.026a103.023 103.023 0 0 0-14.188-11.2l-11.488-7.223c-.99-.574-1.406-.561-2.152-.964s-1.433-.858-2.285-1.281l-17.945-7.441a132.756 132.756 0 0 0-55.9-5.658c-3.816.442-7.751.753-11.369 1.552-25.439 5.612-47.913 16.6-66.44 35.131-1.888 1.895-4.589 4.278-6.233 6.239-2 2.377-3.77 4.76-5.79 7.131-3.123 3.651-7.329 11.151-10.009 15.384l-3.205 6.142c-3.7 8.709-10.062 22.362-10.062 31.368-1.8 0-.191-.092-.891.5Z" data-name="Path 31132"/><path fill="#072b3e" fill-rule="evenodd" d="m163.35 447.809 9.1-.026.112 8.735 7.131.086.086-8.821 4.377-.033.073 3.876 7.038.073.152-3.9 4.384-.073.092 8.742 7.005.167.165-8.814 4.457-.013.007 3.882 7.124-.026.158-3.975 4.074.06.238 8.768 7.2.1-.02-8.742 4.377-.046.158 3.876 6.886-.007.277-3.783 4.331-.132.046 8.841 6.972.013.218-8.715 4.476-.211.079 3.909 7.051.073.139-3.882 4.325-.059.066 8.8 7.1.053.046-8.854 4.371.073.119 3.8 6.866.04.31-3.9 4.278.02.125 8.735 7.058.092.125-8.794 4.417-.1.059 3.9 6.979.106.251-3.862 4.391-.046.066 8.814 6.946-.013.2-8.722 7.982-.092.007 20.058-163.871.053-.172-20.091Zm19.319-37.765c1.684.621 3.7 3.328 5.17 4.628l8.636 8.735H169.3c1.664-2.535 6.49-6.668 9.1-9.157l4.259-4.206Zm-18.711 7.573v-25.842l8.26 7.778c1.486 1.486 4.6 3.7 5.1 5.586l-11.244 11.033a21.649 21.649 0 0 1-2.119 1.439Zm24.5-12.921a21.721 21.721 0 0 1 3-3.229 14.306 14.306 0 0 1 1.631-1.486 6.089 6.089 0 0 0 .977-.8l2.483-2.416c1.69-1.611 3.361-3.724 5.269-4.985v25.842c-2.007-.759-12.531-11.673-13.363-12.921Zm-19.152-18.261h26.726c-1.479 2.232-11.1 11.765-13.363 12.921-.607-.4-12.974-12.379-13.363-12.921Zm-12.591-7.131c-.931 2.014-.33 19.028-.33 22.719H90.896c-19.82-.013-34.332 14.043-34.306 31.183.02 12.809 8.4 25.195 19.655 29.354 6.833 2.522 7.395 1.941 13.786 2.694l65.9.033v9.8h178.64v-9.8c10.016 0 93.6.482 95.932-.3a13.474 13.474 0 0 0 0-6.985c-2.331-.779-85.917-.291-95.932-.291v-16.927H155.936v16.928H97.577c-4.582 0-9.91.64-14.175-.528a26.1 26.1 0 0 1-11.871-6.4c-.449-.456-1.241-1.367-1.69-1.868a23.333 23.333 0 0 1-5.691-16.618c.508-11.765 10.973-21.808 21.411-22.7 9.95-.852 68.79-1.2 70.7.106.548 4.655-.68 17.272.409 20.527 2.126.713 50.3.713 52.429 0 .706-2.106.706-48.983 0-51.089-1.591-.528-50.581-.819-52.39.152Z" data-name="Path 31133"/><path fill="#08bfe6" fill-rule="evenodd" d="M957.814 546.474c-.786 4.008-2.014 6.16-4.113 9.58l-2.232 2.667a20.875 20.875 0 0 1-3.268 2.971 27.34 27.34 0 0 1-20.15 4.628 46.844 46.844 0 0 1-4.714-1.525l-4.219-2.014c-8.128-4.2-13.891-16.876-11.376-25.961l1.063-3.394c.4-1.294.106-.357.528-1.255a31.979 31.979 0 0 1 2.238-3.994c14.882-22.27 51.545-8.7 46.243 18.3Zm-32.635-64.71c-.231.5-1.221 12.8-1.221 14.255-3.261 1.651-7.1 1.2-15.707 6.12-3.024-1.723-10-9-12.8-9.237-1.8 1.2-4.206 4.067-5.9 5.691-1.334 1.274-3.585 2.747-5.051 4.747-1.5 2.047 1.1 3.433 4 6.754 1.393 1.6 3.81 4.159 4.721 5.969-1.169 2.317-2.575 3.935-3.7 6.543-.726 1.684-2.5 5.856-2.535 7.712-3.36 1.7-4.516.456-7.923.99a48.3 48.3 0 0 1-8.114.792c-.541 2.317-.852 13.832 0 17.371l14.855 1.182c.99 1.182.918 2.423 1.354 3.988 1.531 5.447 4.384 9.89 4.727 11.31-2.78 4.252-6.932 7.249-9.8 11.581 1.116 1.69 4.318 4.536 5.9 6.127l2.535 2.364c1.307 1.208 1.862 2.4 3.592 3.539 2.37-.647 9.3-7.546 12.03-9.355 2.793 1.413 8.194 4.47 11.224 5.262a25.024 25.024 0 0 1 4.371 1.419 19.277 19.277 0 0 0 .185 3.823c.568 3.13.132 8.59 1.6 11.765h16.486c1.836-3.625.713-11.224 2.073-15.3 2.595-.871 5.348-1.334 8.015-2.232l7.289-3.407c3.565 1.789 9.666 8.517 12.511 9.4.654-.5.852-.74 1.426-1.248l.957-.819c.066-.066.152-.165.218-.231s.145-.172.211-.231l9.217-9.052c-.6-1.935-7.929-9.408-9.4-11.62.423-1.538 4.866-7.632 6.682-15.146 5.335 0 10.088-.891 15.588-.891v-17.373c-1.769-.04-1.783-.4-3.545-.462a25.91 25.91 0 0 1-4.292-.165 66.011 66.011 0 0 0-7.758-.706c-.007-4.43-3.123-10.768-5.388-14.664.759-2.7 7.764-9.739 9.838-12.069-1.8-3.592-9.435-8.55-12.029-12.472-4.054 2.04-8.108 7.137-11.99 9.4-2.337-.654-6.47-3.651-11.455-5.11-.924-.271-1.208-.258-2.093-.574l-2.086-1.037c0-4.727-.918-10.438-1.34-15.146-3.493 0-15.179-.8-17.49.442Z" data-name="Path 31134"/><path fill="#072b3e" fill-rule="evenodd" d="M1012.898 268.086a13.5 13.5 0 0 0 6.992 0c1.875-5.625-.766-72.435.33-81.638.277-2.324.667-4.747.865-7.157l1.373-7.091c3.862-11.475 3.248-12.1 9.765-23.2 9.7-16.539 27.294-29.955 45.926-36.049a88.808 88.808 0 0 1 50.376-1.023c16.162 4.358 34.748 16.235 44.381 29.572 8.147 11.283 12.624 19.952 15.581 33.87 2.417 11.349 1.433 49.986 1.433 64.05v147.901c0 5.487.442 10.419.442 16.037l.62 32.345c3.215 17.358 9.144 31.1 21.768 43.721 9.719 9.719 17.787 14.089 30.179 19.266 7.355 3.077 19.761 4.9 27.618 4.9 12.776 0 28.615-3.46 39.377-10.075 5.533-3.4 3.169-1.34 10.069-6.411a72.957 72.957 0 0 0 8.8-7.685 74.65 74.65 0 0 0 13.924-19.048c3.347-6.7 6.253-14.03 7.17-21.339.145-1.155.706-2.529.825-3.631 1.155-10.8.469-88.551.469-98.428h-7.13c0 16.037.805 84.51-.944 97.51-3.235 24.026-20.17 46.837-42.77 55.678a72.149 72.149 0 0 1-12.38 4.1c-5.579 1.089-8.563 1.75-14.736 1.75-10.207 0-18.414-.31-28.509-4.457-15.37-6.305-27.446-15.535-36.181-29.308-12.228-19.279-10.6-34.332-10.6-55.334 0-10.973-.449-21.471-.449-32.523V193.521c0-16.823-2.08-24.911-8.761-40.684l-2.806-5.209c-10.3-17.3-20.348-26.033-38.03-35.923-11.072-6.193-26.773-9.527-39.046-10.405-11.046-.786-30.965 2.951-41.232 7.784l-6.523 3.281c-18.038 10.412-28.12 19.827-38.38 38.241l-4.008 8.471c-5.559 14.538-6.087 27.486-6.087 43.358 0 8.385-.839 62.26.291 65.641Z" data-name="Path 31135"/><g filter="url(#a)" transform="translate(.001)"><path fill="#072b3e" fill-rule="evenodd" d="m1410.428 224.44-18.394-.462 6.569-73.993c2.806.634 10.016 10.742 11.891 13.627 7.586 11.66 10.181 28.562 7.415 42.268-.937 4.655-4.318 15.317-7.474 18.559Zm-100.119-72.038 6.365 71.609-16.149.568c-6.893-13.39-10.194-24.957-7.427-40.618 1.287-7.256 3.222-11.66 6.391-18.031 1.287-2.595 8.451-13.5 10.821-13.522Zm75.168 45.589h-62.366c0-5.17-1.334-10.636-1.334-13.363 7.659 0 62.2-.66 64.71.33.251 1.439-.548 3.988-.574 5.889l-.429 7.144Zm-70.83-93.107c0-5.533.383-6.081.462-8.444.363-11.409 3.869-23.709 8.893-33.877 2.073-4.193 1.281-2.5 11.475-4.12 2.483-.4 4.542-.172 6.959-.614 1.063-.191 5.731-.588 6.939-.634a206.386 206.386 0 0 1 29.314 1.9c5.031.746 4.721.132 7.732 7.857 6.932 17.774 7.989 27.941 6.629 46.395-.489 6.609-1.776 16.295-1.776 21.385a57.039 57.039 0 0 1-.872 6.7l-2.225 24.95c-.139 1.248.086 2.694-.066 3.942-.231 1.974-.812 5.236-.852 7.164h-65.931l-3.532-36.115c-.3-2.727-.172-6.675-.574-9.23-.508-3.248-.541-5.691-.792-9.006-.112-1.466-.33-2.74-.449-4.45l-1.334-13.812Zm15.595-53.01c3.968-7.91 16.9-20.263 24.052-24.95 8.979 5.87 18.15 15.918 24.052 24.95-3.506-.31-7.91-1.314-11.567-1.353-4.265-.046-8.028-.429-12.492-.429s-8.121.357-12.492.429l-11.567 1.353Zm-5.7-5.348c-1.69 4.047-6.061 9.283-9.8 18.8-7.137 18.157-8 30.688-6.517 49.782 2.568 33.058 5.969 22.791-6.067 34.748-4.932 4.9-10.161 14.037-12.756 20.652-1.578 4.021-2.4 10.009-3.7 13.1-.112 4.054-1.519 6.12-.891 14.38.158 2.093.706 4.4.9 6.668.627 7.15 5.685 20.157 10.5 26.469a5.7 5.7 0 0 0 .62.72c9.422 0 18.539-.891 28.067-.891l-1.783-19.88c-.779-1.439-.805-3.961-.72-5.81l63.839-.073c.106 2.337.139 6.087-.746 7.956a34.637 34.637 0 0 1-.449 3.994l-.885 13.819h7.573l22.718.891c4.015-4.509 8.273-15.2 9.719-20.573 2.291-8.517 3.1-18.17 1.3-27.089a66.973 66.973 0 0 0-9.791-25.71c-3.334-4.978-12.1-15.707-17.463-18.157l2.258-27.2a99.575 99.575 0 0 0-.74-26.872c-1.809-10.405-6.021-23.161-11.4-32.292-1.73-2.931-4.246-6.351-5.659-9.2-.073-.066-6.015-7.646-9.323-11.019l-1.7-1.868a11.194 11.194 0 0 1-.937-.845c-.066-.066-.139-.178-.2-.244-2.846-3.077-12.611-10.947-16.209-12.749-3.466 1.743-10.96 7.672-14.228 10.716l-.839.944c-.528.561-.687.614-1.162 1.063a85.4 85.4 0 0 0-7.045 7.652c-1.657 1.968-5.368 6.048-6.484 8.134Z" data-name="Path 31136"/></g><path fill="#072b3e" fill-rule="evenodd" d="M536.828 132.507c1.585.139 1.393.449 3.116.449l163.937-.449c0 12.7-.64 126.382.442 128.746h-167.5V132.507Zm167.5-7.131h-167.5v-12.472c7.078 0 164.709-.541 167.212.29.5 1.565.29 10.372.29 12.181Zm-64.149-19.51-37.865-.033-72.732-.172c-.931 2.35-.33 104.885-.33 122.177 0 5.619-.581 38.069.3 40.69 2.588.865 174.408.291 181.909.291 0-15.733.581-160.853-.33-163.164-3.057-.528-58.7.885-69.16.059-1.743-.139-.323-.647-1.789.145Z" data-name="Path 31137"/><path fill="#00a5c9" fill-rule="evenodd" d="M584.939 175.27v-4.9h71.279l-.073 6.391c-2.113.627-69.015.627-70.909-.007-.317-.911-.29-.462-.29-1.486Zm-41.1-22.719c-1.056 2.271-.33 37.132-.33 42.77h153.69v-43.212H563.104c-3.743 0-16.829-.872-19.272.442Z" data-name="Path 31138"/><path fill="#072b3e" fill-rule="evenodd" d="M159.502 194.873h144.334v66.38H159.502v-66.38Zm-6.774-3.565c-1.571 7.249-.5 26.885-.555 35.64-.079 11.435-.66 25.34.092 36.531.924 4.859 4.2 5.368 8.57 5.348H299.38c3.856 0 9.078.673 11.006-3.248 1.875-3.8 1.023-21.286 1.023-26.6V210.91c8.286 0 13.786-.158 19.715-6.127 5.11-5.143 7.368-11.409 5.962-18.658a20.694 20.694 0 0 0-11.118-14.723c-6.965-3.645-15.885-2.37-23.914-2.37H197.809c-8.735 0-45.352 1.07-50.62-1.056-11.382-4.6-12.894-17.325-6.305-24.237 6.451-6.761 11.937-5 21.279-5l90.882-.449v-7.131h-97.116c-1 0-2.152-.053-3.136-.02-1.684.066-1.6.357-3.1.462-21.748 1.519-29.083 33.58-5.526 42.955 6.992 2.78 16.81 1.6 24.686 1.6h129.636c7.421 0 17.741-1.406 24.066 1.769 9.851 4.952 9.58 19.068.3 23.927-4.3 2.251-6.536 1.915-11.442 1.915 0-4.655 1.136-11.911-2.126-14.36a11 11 0 0 0-4.14-1.651c-4.437-.508-116.684-.026-133.619-.026-8.867 0-15.654-1.466-18.8 3.565Z" data-name="Path 31139"/><path fill="#072b3e" fill-rule="evenodd" d="M918.609 61.225h52.119l-26.284 52.119-25.842-52.119Zm38.314 44.546 22.276-44.546h28.509c-1.8 1.651-4.331 3.711-6.134 5.447l-25.32 22.349c-2.7 1.996-17.384 16.231-19.331 16.752Zm-75.286-44.546h28.958c.924 3.8 6.556 12.974 7.963 16.539a16.8 16.8 0 0 0 1.386 2.621l11.059 22.349a14.3 14.3 0 0 1 1.42 3.037Zm115.865-22.758c1.42 1.076 12.122 14.472 12.439 15.634h-24.504c.178-2.027 4.41-6.094 5.876-7.936l6.193-7.692Zm-53.05-1.743c5.678 3.711 11.046 8.841 16.215 12.743 1.5 1.136 4.707 2.945 5.17 4.628h-42.321c2.172-3.308 19.285-14.875 20.936-17.371Zm-52.608 1.743.647.766c.31.37.469.574.832.951l11.033 13.918h-24.5c.433-1.821 11.049-14.927 11.987-15.633Zm64.188-2.634h33.415c-.475 1.736-7.454 10.036-9.468 12.36-1.2 1.386-2.073 3.083-3.572 4.008-1.47-.844-19.485-14.511-20.376-16.366Zm-56.133 0h33.415c-.482 1.743-19.979 16.341-20.494 16.486-2.867-3.22-11.899-14.312-12.922-16.484Zm-32.074 22.719 14 12.723c.093.086.33.376.423.469a5.292 5.292 0 0 0 .713.627l7.045 6.318a62.513 62.513 0 0 1 5.533 4.714l22.507 19.814c3.77 3.849 18.843 16.083 22.719 20.051 2.271 2.324 4.384 3.354 7.131.673 5.308-5.183 17.707-15.073 22.494-19.827 3.473-3.453 7.969-6.589 11.356-10.022 4.483-4.542 18.209-15.476 22.719-20.045 3.354-3.4 7.817-6.411 11.138-9.8 5.671-5.784 8.906-3.783 2.608-12.188-1.565-2.086-3.149-3.724-4.714-5.982-1.505-2.179-13.535-17.008-14.71-17.364H898.551c-10.656 0-7.652-.634-13.7 6.345-3 3.466-5.9 7.962-8.913 11.138-1.6 1.684-3.024 3.935-4.476 5.764-1.941 2.443-3.644 3.063-3.644 6.6Z" data-name="Path 31140"/><path fill="#e2e1e1" fill-rule="evenodd" d="M1425.454 184.184c3.7-2.073 10.98-15.641 13.416-21.009 6.385-14.076 8.781-32.371 6.193-47.484a158.61 158.61 0 0 0-1.122-6c-.178-.852-.357-2.225-.561-3-1-3.935-4.279-11.475-5.7-15.232-1.346-3.572-9.269-15.615-12.34-18.843-4.139-4.351-9.448-10.148-14.452-13.614l-8.662-5.592c-1.466-.852-3.156-1.664-4.358-2.324-1.505-.819-3.037-1.769-4.661-2.463l-7.646-3.044c-1.156-.436-1.644-.343-2.892-.819 1.413 2.852 3.922 6.272 5.658 9.2 5.388 9.138 9.594 21.893 11.4 32.292a99.566 99.566 0 0 1 .74 26.872l-2.258 27.2c5.368 2.449 14.122 13.185 17.463 18.157a67.157 67.157 0 0 1 9.791 25.71Z" data-name="Path 31141"/><path fill="#072b3e" fill-rule="evenodd" d="M1062.944 140.971c1.056 1.6 3.763 3.446 5.176 4.622 1.505 1.261 4.245 3.869 5.962 4.285 6.365-4.166 10.075-5.962 17.2-7.751 1.974-.5 5.4-.911 7.012-1.453.231-.693 1.182-12.214 1.182-13.522h13.363c0 2.218.64 11.785 1.182 13.522.535.805 4.609 1.466 6.484 1.981 7.395 2.04 11.066 4.49 17.285 8.557 2.945-.713 8.213-6.53 11.138-8.464.64.423 9.151 8.6 9.356 8.907-2.535 3.836-6.345 6.82-8.906 10.7.7 2.885 8.906 13.429 8.906 24.052l14.254 1.34v12.921a13.043 13.043 0 0 0-3.209.357 32.477 32.477 0 0 1-3.928.073c-2.535.1-1.492.462-7.117.462a43.689 43.689 0 0 1-1.723 6.734c-4.054 11.983-5.546 10.511-8.966 17.318l8.946 10.214-1.538 1.637a4.565 4.565 0 0 0-.687.647c-.482.508-.522.614-1.083 1.142l-1.129 1.1a38.817 38.817 0 0 1-4.945 4.41 28.234 28.234 0 0 1-2.707-2.2l-8.432-6.715a55.106 55.106 0 0 1-21.114 8.728c-3.995.759-3.9-.4-4.265 10.881-.059 1.769-.423 1.769-.456 3.552-3.037 0-10.663.508-13.073-.291l-1.182-13.964c-6.932-.621-13.086-3.724-19.015-6.827-1.961-1.023-3.466-2.41-5.487-3.42l-10.6 8.583a36.517 36.517 0 0 1-4.437-4.239c-.766-.766-1.453-1.486-2.218-2.232-.8-.779-2.093-1.552-2.232-2.225.31-2.172 7.051-8.385 8.794-11.019a58.16 58.16 0 0 1-8.088-16.862c-.647-2.106-.885-4.853-1.558-6.9-4.338-1.452-9.514-.555-13.964-1.631v-12.926c1.188 0 2.4.033 3.578.013l10.828-1.2c.726-2.166 1.037-4.391 1.8-6.668 3.724-11.158 6.226-11.64 8.741-16.651-.654-1.3-7.791-9.507-8.913-10.247 1.3-1.981 7.863-8.075 9.8-9.356Zm28.509-6.239c-5.612.119-15.892 5.876-17.371 6.239l-11.832-9.785c-2.251 1.459-10.26 9.95-14.5 13.74l-1.1 1.122c-1.835 1.855-2.812 2.172-3.341 3.869l9.5 11.006c-1.347 3.8-4.839 6.629-7.229 16.572l-15.747 1.182c-.871 2.615-.291 21.669-.291 25.994 2.252.2 5.262.878 7.56.911 1.261.013 2.806-.112 4.034-.02a31.453 31.453 0 0 0 4 .449c.007 3.552 4.14 13.337 6.239 16.486l-9.963 11.884c1.644 2.383 7.19 7.388 9.408 9.613 1.7 1.7 8.4 8.359 9.95 8.834l11.363-9.362c4.338 2.548 12.1 6.688 16.664 7.1l.871 10.709c.06 1.816.462 1.519.462 4.886 6.173 0 21.748.271 26.9-.165.733-2.469.806-12.723 1.466-14.69 11.224-3.763 4.932-.37 17.08-6.53a127.743 127.743 0 0 0 12.03 9.8 23.929 23.929 0 0 0 2.436-2.02l7.256-7c1.558-1.558 8.451-7.613 9.019-9.692l-8.636-10.075c-.059-.066-.178-.159-.238-.211l-.489-.4c.3-1.1 6.688-11.4 7.13-16.486 3.024-.066 11.733-1.334 16.037-1.334v-26.284c-1.77-.04-1.789-.4-3.546-.462-3.532-.132-7.8.158-11.752-1.169-1.941-5.784-2.813-10.511-6.53-16.189.924-1.393 9.164-10.867 10.247-11.581-1.2-1.8-10.96-11.237-14-14.07a40.224 40.224 0 0 0-5.163-4.641c-4.08 2.7-7.428 6.6-11.581 9.356-1.472-.4-5.341-3.05-7.632-3.948-3.222-1.261-5.85-1.967-9.006-3.024-1.281-3.836-.409-12.459-2.073-15.747h-26.275c-.046 2.126-.838 4.965-.911 7.111-.1 2.951-.429 5.137-.429 8.035Z" data-name="Path 31142"/><path fill="#e2e1e1" fill-rule="evenodd" d="M207.171 57.22c-2.78 0-4.536.178-7.131-.449.891-10.049 3.4-16.1 10.359-23.055a34.482 34.482 0 0 1 23.947-9.91v6.682c-14.334 0-27.175 11.072-27.175 26.726Zm5.341 49.841 6.662-.106-7.513-41.635 6.642-1.01c3.77 5.473 4.9-.059 10.253.092 2.654.073 3.678 1.69 6.233 2.357 2.548-1.122 3.724-2.476 6.688-2.364 3.862.145 6.734 5.084 9.382-.191l6.721 1.037c.119 6.695-7.467 36.188-7.236 41.819l6.728.059c-.4-1.03-.218-1.578.271-3.3l1.32-3.585c3.064-5.2 8.042-10.412 11.343-17.615 7.269-15.872 10.471-29.546 1.921-45.154a38.463 38.463 0 0 0-3.829-5.526l-4.754-5.044c-10.326-8.623-23.122-12.65-36.815-10.016-7.051 1.353-10.8 3.077-16.948 7.111l-2.205 1.8c-.053.046-.416.376-.469.423-3.7 3.281-7.441 6.926-9.752 11.633-6.959 14.2-5.757 22.191-1.129 37.218 1.472 4.78 7.315 14.961 10.187 18.771a59.14 59.14 0 0 1 4.087 5.718 24.213 24.213 0 0 1 2.232 7.52Z" data-name="Path 31143"/><path fill="#e30047" fill-rule="evenodd" d="M1108.81 562.802a16.911 16.911 0 0 1-6.642-1.769l15.456-52.4 6.7 1.7c-.066 1.875-14.182 49.67-15.516 52.469Zm-36.953-31.52c4.714-2.595 16.737-13.832 20.236-14.888l3.909 4.945c-1.255 2.489-14.717 11.211-17.793 14.327 1.584 2.331 15.608 11.64 17.734 14.255l-3.975 5.229c-4.245-1.426-15.192-12.531-20.111-14.915.29 8.365 6.424 18.388 12.967 24.336.066.059.152.165.218.224l4.978 3.928c8.108 5.15 21.141 8.141 30.5 5.8 6.411-1.611 14.367-4.536 19.167-9.342a31.411 31.411 0 0 1 2.456-2c1.532-1.347 4.945-6.312 6.041-8.213 2.417-4.179 4.76-9.686 4.754-14.532l-19.498 14.846-4.443-5.229c2.139-2.905 16.493-11.957 17.813-14.387l-17.635-13.746c.429-1.624 2.852-4.509 4.16-5.487l20.045 14.888c-.337-.832-.641-6.167-2.053-8.748-1.255-2.3-.119-1.466-2.251-5.322a41.294 41.294 0 0 0-52.014-18.744c-9.58 3.829-15.344 9.171-20.58 17.734-2.093 3.427-4.628 11.171-4.628 15.04Z" data-name="Path 31144"/><path fill="#072b3e" fill-rule="evenodd" d="M539.039 536.505c.02-3.215 3.572-12.221 4.47-15.984l7.329 6.926c1.558 1.565 3.466 3.09 4.252 4.655l-16.05 4.4Zm76.185-96.619-23.161 22.666c-2.971 2.185-6.365 6.444-9.243 9.078l-19.094 18.328a7.592 7.592 0 0 1-.225.218l-4.516 4.391c-1.578 1.591-3.1 3.1-4.674 4.681l-6.6 6.318c-3.651 3.493-10.359 9.151-11.336 12.716-1.287 4.7-8.4 26.31-8.458 28.965 1.07-.251 2.39-.64 3.479-.971 1.466-.449 2.357-.68 3.823-1.083 2.265-.621 5.024-1.373 7.236-2.119 17.529-5.909 13.2-.621 25-12.419a54.689 54.689 0 0 1 4.747-4.608l1.4-1.268c.066-.066.165-.158.231-.218l17.146-16.711c.066-.066.165-.159.231-.218l24-23.194c.594-1.07 21.114-21.2 22.745-22.257l37.521-36.551c-.2-1.525-.621-1.387-1.915-2.634-.812-.786-1.439-1.459-2.238-2.3l-1.294.026c-4 2.694-9.4 9.838-13.475 13.258l-44.546 43.219c-.581.581-1.1.964-1.644 1.472l-19 18.421c-.066.066-.145.172-.211.231s-.152.165-.218.224l-.231.211c-5.718 5.216-27.869 27.783-30.259 28.984l-3.2-3.486c3.446-2.3 14.505-13.773 19.629-18.837l31.47-30.455c1.136-1.089 2.423-2.205 3.671-3.453l16.928-16.486c1.136-1.136 2.2-2.205 3.341-3.341 2.232-2.225 4.6-4.826 6.939-6.873l27.4-26.647-.218-1.274c-1.664-1.1-3.05-3.592-4.833-3.843l-27.288 26.39c-2.225 2.225-4.4 4.529-6.675 6.688l-18.355 17.724c-.555.528.125-.066-.429.462l-48.56 47.22c-.066.066-.152.165-.218.224l-8.062 7.527-3.116-3.116c1.2-1.809 4.859-5.071 6.569-6.794l34.082-33.19c2.172-2.192 4.622-4.179 6.906-6.457 2.324-2.331 4.582-4.582 6.906-6.906l4.074-3.942c.541-.522.489-.4.964-.819l14.373-14.142c.1-.086.4-.31.5-.4l2.978-2.813c.317-.277.6-.482.957-.825l30.826-30.186c-.125-1.6-.984-1.829-2.3-3.037-1.07-.977-1.446-1.776-2.575-2.185l-37.875 36.41Z" data-name="Path 31145"/><path fill="#e2e1e1" fill-rule="evenodd" d="M1285.688 183.616c1.307-3.083 2.126-9.078 3.7-13.1 2.594-6.616 7.824-15.753 12.755-20.652 12.036-11.957 8.636-1.7 6.068-34.748-1.486-19.094-.614-31.625 6.516-49.782 3.737-9.521 8.108-14.756 9.8-18.8-3.684.073-15.034 6.107-18.355 8.458l-16.6 13.693c-.264.231-.806.64-.977.805-.119.119-.634.759-.812.971-2.713 3.116-6.668 7.672-8.768 11.277-2.549 4.364-6.325 10.57-7.976 15.634-3.215 9.871-3.123 7.7-4.912 18.7-.35 2.152-.284 4.16-.588 6.094-1.842 11.752 1.5 29.823 7.018 41.3l9.289 16.1a44.756 44.756 0 0 1 2.945 4.179l.891-.125Z" data-name="Path 31146"/><path fill="#072b3e" fill-rule="evenodd" d="M839.856 451.024c-.806 9.633-.092 22.534-.092 32.523v65.93a82.528 82.528 0 0 0 5.48 27.479c1.671 4.1 5.3 12.742 8.055 16.446l9.877 12.842c8.563 8.94 18.467 16.8 29.975 21.7 35.5 15.126 70.414 9.639 100.31-14.321l1.367-1.307c11.706-10.749 20.012-22.871 25.109-38.155a89.2 89.2 0 0 0 4.714-28.252c-.106-21.973-.007-43.965-.007-65.938h-7.573c0 9.329.627 66.717-.357 73.154l-1.525 10.5c-.713 4.107-4.358 14.684-6.4 18.1-5.341 8.959-6.45 12.67-15.331 21.649-9.679 9.8-12.254 10.254-21.207 15.766-6.153 3.79-20.441 8.015-27.888 9.085-7.758 1.116-15.813.357-23.531.1-4.08-.139-15.628-3.519-19.536-4.965-17.549-6.47-30.431-17.879-41.047-32.906-5.711-8.075-10.465-21.154-12.03-31.19a39.969 39.969 0 0 0-.885-5.685c-.753-4.556-.284-14.182-.284-19.266 0-45.807.7-95.411-.29-140.386l-7.038-.007.139 57.084Z" data-name="Path 31147"/><path fill="#072b3e" fill-rule="evenodd" d="M972.96 402.025h94c2.3-2.581 3.981-8.167 11.845-10.425 5.137-1.472 14.169-.284 17.113 4.193h-13.368c-.145 1.934-5.361 9.659-6.721 11.99.522 1.862 6.272 11.633 7.613 12.511h12.472c-3.658 5.533-16.823 7.15-23.953.343-1.875-1.783-3.42-5.1-5-6.134h-93.556c-1.182.779-3.222 4.43-5 6.134-7.216 6.926-20.4 5.031-23.953-.343h12.472c1.419-.924 7.064-10.564 7.612-12.511-1.34-2.291-6.008-10.94-7.612-11.99h-12.472c3.136-4.4 11.3-5.632 16.757-4.285 5.641 1.389 9.116 5.317 11.751 10.517Zm-15.146 30.186c13.555-.588 17.912-10.128 19.6-10.755l85.534-.066c5.6 5.619 9.329 10.5 20.045 10.834a23.02 23.02 0 0 0 16.816-5.361c3.347-2.912 8.6-8.887 9.019-13.7l-21.266-.007-3.321-4.84 3.169-5.381 21.425-.026c-2.654-11.158-14.446-20.447-26.284-19.015-13.667.733-18.223 10.372-19.6 10.92l-85.606-.02c-5.077-6.226-11.059-10.966-19.972-10.854-11.218-1.809-23.287 8.425-25.842 18.969h21.385l3.176 5.315-2.588 4.186c-.594.9-.172.277-.588.753H931.53a39.951 39.951 0 0 0 3.552 7.586 24.289 24.289 0 0 0 22.732 11.462Z" data-name="Path 31148"/><path fill="#072b3e" fill-rule="evenodd" d="M928.974 456.663c2.588-.8 123.761-.284 137.534-.284 6.134 0 42.863-.819 44.883.561l.125 2.555c-3.136 1.571-4.622 3.136-8.471 3.13l-153.7-.013c-6.305 0-15.9 1.518-20.375-3.268Zm14.136-20.335v12.921l-21.266.007c-1.01 1.585-.561 10.788-.561 13.806 6.51 5.79 11.415 6.682 19.6 6.682h157.7c5.368 0 7.117.409 11.977-1.386 3.44-1.274 5.5-3.334 8.517-4.853 0-3.182.541-11.455-.291-13.964-2.634-.878-17.589-.291-21.537-.291v-12.922c-1.063-.224-5.17-.858-7.282-.152-.805 2.41-.29 10.042-.29 13.073H950.69c0-2.951.561-10.775-.33-13.033a17.225 17.225 0 0 0-7.243.112Z" data-name="Path 31149"/><path fill="#e2e1e1" fill-rule="evenodd" d="M957.365 383.944c8.913-.112 14.895 4.628 19.972 10.854l85.607.02c1.38-.548 5.935-10.187 19.6-10.92.621-2.958 1.1-12.142.152-14.994-1.842-.614-123.2-.614-125.042 0-.797 2.387-.289 11.845-.289 15.04Z" data-name="Path 31150"/><path fill="#f90a55" fill-rule="evenodd" d="m163.523 467.91 163.871-.053-.007-20.058-7.982.086-.192 8.725-6.946.013-.066-8.814-4.4.046-.244 3.862-6.976-.107-.066-3.9-4.41.1-.126 8.8-7.065-.092-.125-8.742-4.272-.013-.31 3.9-6.866-.04-.119-3.8-4.371-.073-.046 8.86-7.1-.053-.066-8.8-4.325.059-.132 3.882-7.051-.073-.079-3.909-4.476.211-.218 8.715-6.972-.02-.046-8.841-4.331.132-.277 3.783-6.893.007-.158-3.869-4.377.046.02 8.735-7.2-.1-.238-8.768-4.08-.059-.158 3.975-7.124.026v-3.879l-4.457.013-.165 8.814-7.005-.165-.092-8.742-4.384.073-.152 3.9-7.038-.066-.073-3.876-4.384.033-.076 8.816-7.137-.092-.112-8.735-9.1.026Z" data-name="Path 31151"/><path fill="#e2e1e1" fill-rule="evenodd" d="M957.815 432.207c-.7 1.664-.9 8.279-.152 10.511 1.842.614 123.2.614 125.042 0 1.063-3.182-.4-8.57.291-10.5-10.716-.337-14.446-5.216-20.045-10.835l-85.534.066c-1.69.627-6.041 10.168-19.6 10.755Z" data-name="Path 31152"/><path fill="#e2e1e1" fill-rule="evenodd" d="m541.726 412.784 47.332 46.15c1.122 1.122 2.641 2.192 3 3.625l23.161-22.666c-2.271-1.5-3.182-2.905-4.635-4.265l-12.65-12.3c-.647-.733-1.063-.931-1.624-1.492a36.68 36.68 0 0 0-3.242-2.991 20.4 20.4 0 0 1-1.565-1.552l-15.946-15.674c-.066-.066-.152-.165-.218-.231-2.423-2.548-9.283-9.336-11.112-10.049-2.634 3.334-7.857 7.454-11.138 10.914-1.928 2.034-9.336 9.785-11.356 10.537Z" data-name="Path 31153"/><path fill="#072b3e" fill-rule="evenodd" d="M1333.509 429.045a30.892 30.892 0 0 0-7.282-.739c-.007 9.877-7.031 21.161-12.835 28.595-5.876 7.527-16.526 13.515-25.3 16.572a47.829 47.829 0 0 1-13.092 2.5c-1.835-.013-3.638.528-4.846.429-12.947-1.083-20.87-2.621-31.949-9.963a56.17 56.17 0 0 1-11.079-9.857c-13.218-15.549-17.054-37.066-9.006-55.75 5.586-12.967 12.2-19.867 25.062-27.505 3.618-2.152 11.125-5.13 15.337-5.6l8.993-1.255c3.42-.528 6.787.357 10.154.357l.806-6.695c-7.929-3.717-29.374 1.486-38.762 6.6-16.843 9.164-29.48 25.716-32.431 44.632-3.763 24.125 6.206 47.352 26.469 60.861 5.85 3.9 9.408 5.308 15.72 7.89 5.025 2.053 15.133 3.427 20.19 3.427 15.232-.013 32.187-5.348 43.325-15.925 1.09-1.037 2.1-1.657 3.09-2.707l2.918-3.315c2.714-2.727 7.606-10.108 9.422-14.2.548-1.235 1.122-2.225 1.783-4.008 1.076-2.918 4.041-12.076 3.328-14.354Z" data-name="Path 31154"/><path fill="#072b3e" fill-rule="evenodd" d="M306.959 410.043c1.829 1.208 7.573 7.546 10.326 9.719 1.208.957 2.648 2.185 3.044 3.638h-26.727l12.228-12.275c.066-.066.152-.165.218-.224.647-.634-.026-.185.924-.858Zm5.751-5.348 13.4-12.921v26.284l-7.54-7.157a10.611 10.611 0 0 0-.838-.944c-.667-.627-1.268-1.149-1.862-1.7a11.7 11.7 0 0 1-2.859-2.958l-.3-.607Zm-24.911-12.921c2.166.588 7.665 7.3 10.366 9.679l3.479 3.275-13.35 12.941c-.059-4.344.673-23.359-.5-25.895Zm5.79-5.341h26.726c-1.043 1.578-4.8 5.1-6.338 6.576l-7.025 6.338c-1.175-.779-12.855-12.161-13.363-12.921Zm39.707 37.865.145-14.162 5-.2.046-6.754-5.117-.079-.059-14a34.508 34.508 0 0 1 .37-9.8c-3.552-.858-50.845-.779-52.72-.152-.984 2.945-.29 44.579-.29 51.386 6.728 0 50.02.72 52.68-.33.383-1.169-.152-4.074-.053-5.9Z" data-name="Path 31155"/><path fill="#072b3e" fill-rule="evenodd" d="M1066.397 177.944c3.506-10.6 16.2-21.768 27.288-23.795 3.711.324 10.993-4.952 29.711 3a17.485 17.485 0 0 1 2.951 1.5c.951.555 1.842 1.155 2.713 1.743a44.323 44.323 0 0 1 9.052 8.768c1.347 1.769 2.628 4.437 3.684 5.7 4.866 5.652 4.549 17.4 4.226 24.019-1.657 2.192-.2 9.712-11.3 21.887-3.645 3.994-8.431 6.695-13.35 8.926a13.622 13.622 0 0 1-1.505.726 42.592 42.592 0 0 1-34.062-1.835c-7.652-3.829-12.538-9.191-17.074-16.11l-.878-1.565a49.077 49.077 0 0 1-2.694-7.124c-.9-3.565-1.954-9.58-1.42-13.013.238-1.552.231-3.2.489-4.859.449-2.905 1.9-5.7 2.159-7.969Zm33.9-32.035c-2.819.64-3.823-.363-10.036 1.875-10.6 3.823-14.452 6.094-22.065 14.017a47.454 47.454 0 0 0-7.289 10.531c-3.625 6.444-5.52 17.516-4.6 25.624 1.3 11.4 8.042 24.475 16.968 31.143 5.189 3.876 9.137 6.411 15.377 8.682 5.136 1.875 15.535 3.374 21.339 2.35 17.734-3.123 26.9-8.293 36.98-23.161a11.46 11.46 0 0 0 1-1.67c3.367-6.84 5.738-13.376 5.876-21.306.112-6.318-1.981-16.2-5.282-21.926-4.173-7.223-5.216-9.309-12-15.172a47.549 47.549 0 0 0-15.423-8.636c-4.991-1.664-14.208-3.506-19.451-2.852-1.472.185-1.327.482-1.4.5Z" data-name="Path 31156"/><path fill="#072b3e" fill-rule="evenodd" d="M245.036 410.043c.964.634 13.1 12.386 13.363 13.363h-26.726c.376-1.393 12.743-12.954 13.363-13.363Zm-19.154 7.573v-25.841c1.426.389 11.825 10.8 13.4 12.881-.839 2.192-1.842 1.809-3.678 3.968l-2.707 2.634c-1.578 1.591-5.117 5.837-7.012 6.351Zm24.5-13.033c2.324-1.631 1.327-1.314 3.2-2.925 2.806-2.416 7.811-8.319 10.168-9.877v25.842c-1.307-.865-12.432-11.409-13.363-13.033Zm-18.711-18.15H258.4c-.561.852-12.148 12.115-13.363 12.921-1.994-1.321-12.584-11.752-13.363-12.921ZM218.6 379.6c-.7 2.1-.7 48.547 0 50.647 2.984 1 45.768.3 52.72.3 0-6.8.693-48.435-.29-51.386-2.251-.753-33.071-.29-39.8-.29-3.03 0-10.458-.845-12.624.74Z" data-name="Path 31157"/><path fill="#f90a55" fill-rule="evenodd" d="M519.007 46.086c2.238 1.129 12.353 11.165 13.812 13.363h-27.175c.37-1.351 13.066-13.169 13.363-13.363Zm5.79-5.341c1.023-1.994.086-.581 1.413-1.71 3.136-2.674 10.188-11.059 12.4-11.66v26.28c-.845-.231-6.49-5.322-7.21-6.153-1.254-1.433-2.113-2.007-3.308-3.38-1.268-1.459-1.994-1.439-3.295-3.387Zm-24.95 12.921V27.378c1.585.429 5.889 5.222 7.018 6.345 1.75 1.75 5.579 5.183 6.794 7.018l-6.8 6.563c-1.816 1.631-4.892 5.777-7.012 6.351Zm5.79-31.632h27.175a45.016 45.016 0 0 1-6.682 6.682l-1.136 1.089c-.053.046-.423.376-.469.423-.673.6-1.182 1.056-1.842 1.723a23.469 23.469 0 0 0-3.229 3.453l-3.808-3.318a24.483 24.483 0 0 1-.469-.423l-9.527-9.626Zm-12.921 42.317c2.331 3.519 8.088 2.225 12.029 2.225l35.646.007c2.714.007 3.9-.053 5.335-2.238V17.124l-2.133-2.324c-6.246.092-47.471-.805-49.544.555-2.39 1.565-1.334 8.081-1.334 11.125v37.864Z" data-name="Path 31158"/><path fill="#2a2c32" fill-rule="evenodd" d="M220.511 74.142c4.8-.2 3.73-.918 7.593-2.43 2.516.746 3.473 2.317 6.233 2.383 3.493.086 3.744-1.466 6.688-2.357 3.836 1 2.595 2.35 7.692 2.324l-5.909 33.018-16.024.007c-.984-1.987-5.777-28.971-6.266-32.946Zm-8 32.926-5.341.059v7.125h2.674v4.9h-2.673v7.131h55.24v-7.131h-45v-4.9h45v-7.131l-5.341.007-6.728-.059c-.231-5.632 7.355-35.118 7.236-41.819l-6.721-1.037c-2.641 5.275-5.52.337-9.382.191-2.964-.112-4.14 1.241-6.688 2.364-2.555-.673-3.578-2.284-6.233-2.357-5.348-.152-6.477 5.374-10.253-.092l-6.642 1.01 7.514 41.635-6.662.106Z" data-name="Path 31159"/><path fill="#e2e1e1" fill-rule="evenodd" d="M382.688 124.933h40.988V85.286h-40.988Z" data-name="Path 31160"/><path fill="#f90a55" fill-rule="evenodd" d="M1350.655 71.066c-1.921.436-1.756-.244-4.377.852-18.639 7.778-18.183 28.654-5.883 37.964l5.071 2.945a23.972 23.972 0 0 0 20.857-1.71 25.355 25.355 0 0 0 5.883-5.255 23.593 23.593 0 0 0 3.757-7.381 20.3 20.3 0 0 0-2.641-17.523c-1.261-1.69-.4-1.386-2.2-3.143-5.11-4.991-11.772-8.161-19.061-7.256-1.459.185-1.34.489-1.4.5Z" data-name="Path 31161"/><path fill="#072b3e" fill-rule="evenodd" d="M1362.315 510.723a33.454 33.454 0 0 1-2.588 10.333l-.706 1.519c-4.3 9.6-16.526 17.107-28.338 17.107v7.131c11.191 0 18.8-3.427 27.063-10.359 6.338-5.321 12.142-17.661 12.142-25.723l-.165-145.84c-3.228-.528-3.961-.317-7.407-.277v146.115Z" data-name="Path 31162"/><path fill="#08bfe6" fill-rule="evenodd" d="M1410.427 224.445c3.156-3.242 6.536-13.9 7.474-18.559 2.766-13.7.178-30.609-7.415-42.268-1.882-2.892-9.085-12.993-11.891-13.627l-6.569 73.993 18.395.462Z" data-name="Path 31163"/><path fill="#2a2c32" fill-rule="evenodd" d="M943.401 379.013c2.119.706 4.978.29 7.282.29 0-3.433-.548-14.109.29-16.638 2.238-1.756 13.192-.74 16.638-.74 14.327 0 119.3-.535 121.768.291.858 2.562.3 13.574.3 17.08 2.3 0 5.163.416 7.283-.291.839-2.522.29-9.144.29-12.181.007-4.371.092-6.867-3-9.923-3.849-3.8-15.5-2.555-22.838-2.555H956.923c-9.019 0-13.845 1.294-13.812 12.029.007 2.978-.5 10.247.291 12.63Z" data-name="Path 31164"/><path fill="#e2e1e1" fill-rule="evenodd" d="M1146.021 198.887c.323-6.622.64-18.368-4.226-24.019v1.3c-5.493 0-8.7.614-14.208-.046-10.484-1.254-4.714-.865-10.735-4.853l-7.606 2.113.152 4.239c-2.727 1.076-5.982-.409-6.794 2.555.713 1 8.1 4.721 9.356 9.356l-5.77-.99-1.38-2.555c-1.836-.059-3.031-.462-5.315-.462-.073.079-.178.1-.211.238 0 .02-.33.4-.4.489l-3.6 3.519c-2.146 2.119-1.565 2.086-1.01 6.431l4.338 2.245c.007 4.972-2.225 4.806-2.225 16.928 4.972.007 6.252-2.469 9.461-5.685l7.909-7.685a8.821 8.821 0 0 1-3-3.453l1.149-4.14c2.04 1.294 3.281 3.4 5.42 4.47 1.565-.792 2.74-1.631 4.457-1.783.04 1.954.449 1.756.449 6.682 2.258 0 5.658-.779 6.794-.561.766 1.934.066 4.859.383 6.292a2.145 2.145 0 0 0 .878 1.433c1.373-1.043 14.433-11.713 14.664-12.069h1.1Z" data-name="Path 31165"/><path fill="#072b3e" fill-rule="evenodd" d="M1429.138 457.713v-1.783h-7.573c0 9.012-7.448 15.588-14.7 15.588a18.748 18.748 0 0 1-10.848-2.958l-1.954-2.053a15.553 15.553 0 0 1-4.575-11.019V339.662c-2.225 0-5.183.449-7.124-.442v103.353c0 7.844-1.215 16.869 2.218 23.617a23.314 23.314 0 0 0 14.169 11.673c16.935 4.338 30.391-8.134 30.391-20.144Z" data-name="Path 31166"/><path fill="#08bfe6" fill-rule="evenodd" d="M1310.308 152.407c-2.364.026-9.527 10.927-10.821 13.522-3.169 6.371-5.1 10.775-6.391 18.031-2.773 15.661.528 27.222 7.428 40.618l16.149-.568-6.365-71.609Z" data-name="Path 31167"/><path fill="#f90a55" fill-rule="evenodd" d="M543.805 227.099c2.027.673 43.721.673 45.741 0 .693-2.073.469-20.487.218-23.689-2.964-1.076-36.26-.753-44.058-.555-2.918.073-2.192.812-2.192 6.721.001 3.572-.573 14.928.291 17.523Z" data-name="Path 31168"/><path fill="#f90a55" fill-rule="evenodd" d="M597.747 203.337c-.957 2.067-.33 20.2-.33 24.052 6.206 0 43.252.64 46.038-.29.839-2.5.3-19.721.3-23.762-3.5-.845-44.335-.9-46 0Z" data-name="Path 31169"/><path fill="#f90a55" fill-rule="evenodd" d="M651.319 227.395h45.887c-.007-3.942 1.895-22.89-.291-24.211-1.327-.8-40.743-.3-45.589-.29v24.5Z" data-name="Path 31170"/><path fill="#00a5c9" fill-rule="evenodd" d="M171.696 517.986c-1.717-.508-3.215-2.047-4.958-3.81-1.585-1.6-3.314-2.615-4.6-4.311.667-1.7 2.971-3.935 4.49-4.938l3.869 3.281c4.08-2.879 9.435-13 13.059-14.862l4.991 3.9Zm.647-31.724c-2.7.687-3.777.119-7.5 2.628-20.553 13.845-6.543 41.126 14.981 37.251a21.588 21.588 0 0 0 12.822-7.672c7.335-8.649 5.645-26.713-10.8-31.863a16.1 16.1 0 0 0-9.494-.343Z" data-name="Path 31171"/><path fill="#072b3e" fill-rule="evenodd" d="m1403.335 425.632-.04 2.681c7.573 0 11.818.145 19.6 5.341a21.967 21.967 0 0 1 2.8 2.1l2.429 2.476c5.236 5.282 8.458 14.6 7.342 21.808-1.2 7.745-2.839 11.977-8.141 17.694l-6.285 4.853c-1 .607-.924.4-1.789.885-13.555 7.461-32.767 2.337-40.453-12.835l-6.679 3.117c2.06 8.51 17.457 19.252 28.951 20.051 13.978.971 26.562-3.625 34.571-14.439 6.939-9.369 8.537-17.774 6.82-28.734-1.387-8.893-7.573-17.377-14.472-22.5-8.821-6.543-15.351-6.946-25.135-6.946Z" data-name="Path 31172"/><path fill="#072b3e" fill-rule="evenodd" d="M513.625 443.491c1.941 2.562 4.82 4.635 7 6.814 2.02 2.02 6.424 5.83 6.853 7.4h-78.4v7.13h77.961c-2.839 4.292-12.7 11.567-13.4 13.845a21.066 21.066 0 0 0 5.387 4.866c2.06-3.123 10.518-10.458 14.149-13.918 1-.944 1.915-1.928 2.885-2.905 1.538-1.538 4.6-4.258 5.678-5.9-1.287-1.941-5.09-5.328-7.1-7.157l-4.377-4.087c-2.621-2.621-8.8-9.573-11.693-11.026-1.8 1.32-4.258 2.733-4.939 4.939Z" data-name="Path 31173"/><path fill="#072b3e" fill-rule="evenodd" d="M1224.094 416.28c-.9 1.954-.462 8.081-.059 10.418 1.809 10.419 3.559 15.423 10.749 24 12.043 14.36 32.827 19.662 50.521 13.766 10.082-3.361 20.58-11.171 25.465-20.414l1.393-2.615c1.888-3.651 5.236-10.795 3.961-14.611l-6.827-.839c-.059 2.251-1.169 5.566-1.849 7.619-1.446 4.358-1.248 3.136-3.057 6.741-3.757 7.494-13.027 14.373-21.22 17.094-20.712 6.873-41.905-3.156-49.888-23.511-2.377-6.054-1.961-10.788-1.961-17.641-2.436 0-5.566-.9-7.243 0Z" data-name="Path 31174"/><path fill="#e2e1e1" fill-rule="evenodd" d="M637.949 508.656c3.532.429 2-.145 4.014 1.618 1.142 1 .588.8 1.453 1.67s2.053 1.472 3.116 2.674c2.839 3.2 3.13 2.786 5.671 6.114l.581.687c2.027.99 1.426 1.083 3.354 2.753l13.568 12.842c1.083-1.525 3.75-4.615 5.559-4.872.535-2.251 7.243-7.877 9.607-10.115 1.651-1.565.059-1.109 2.218-1.116.132-2.027 3.5-4.958 5.2-5.506-2.443-3.413-1.6-1.578-4.041-4.193l-1.644-1.472a17.162 17.162 0 0 1-1.261-1.406l-14.015-13.609c-1.585-1.73-1.532-1.552-2.819-1.809v4.892l-3.994.33-.112 10.5-11.554.145-.1 4.318-7.078-.191-.238-4.265-7.487.026Z" data-name="Path 31175"/><path fill="#2a2c32" fill-rule="evenodd" d="M1354.241 268.865c-2.238-2.377-9.468-18.559-10.729-22.191-1.677-4.82-2.674-8.167.3-12.842 5.064-7.943 16.922-7.065 21.094.323 2.727 4.82 1.743 7.943-.073 12.776-2.172 5.79-7.209 17.166-10.6 21.94Zm-1.611 10.98 5.229.125c-.007-3.658 1.657-5.077 3.268-8.326 4.51-9.111 14.413-24.746 12.512-34.636s-9.607-15.905-20.243-15.859c-10.98.046-22.956 10.5-16.981 27.248 2.793 7.824 10.531 25.848 16.215 31.454Z" data-name="Path 31176"/><path fill="#072b3e" fill-rule="evenodd" d="M1325.223 337.873c-2.4 5.176 2.6 51.683-2.39 60.748-7.48 13.588-28.205 12.485-34.273-1.7-.99-2.324-.759-4.78-1.38-6.635-1.7-.568-2.456-.125-4.14-.33-1.783-.211-5.375-2.232-1.974 7.778 6.715 19.774 31.354 22.772 43.721 10.412 9.362-9.356 7.679-18.645 7.679-31.52v-39.2c-2.205 0-5.454-.515-7.243.442Z" data-name="Path 31177"/><path fill="#072b3e" fill-rule="evenodd" d="M203.936 495.577a38.879 38.879 0 0 0-.04 6.391c2.582.865 110.154.29 122.659.29v-7.13h-92.216c-4.747.001-27.934-.891-30.403.449Z" data-name="Path 31178"/><path fill="#2a2c32" fill-rule="evenodd" d="M92.228 70.583c2.45 1.71 4.562 10.247 10.7 10.247 3.354 0 5.6-1.558 7.5-4.087a36.91 36.91 0 0 0 2.212-3.578c1.235-2.007.753-2.364 3.209-2.582a44.06 44.06 0 0 0 4.008 6.688 8.775 8.775 0 0 0 7.091 3.559c7.586-.634 7.5-8 11.138-10.729a13.808 13.808 0 0 1 1.353 1.4c1.756 2.463 3.387 8.715 10.273 9.329 0-7.982.944-5.784-4.265-13.555a8.818 8.818 0 0 0-7.758-4.265c-6.946 0-7.619 7.936-11.138 10.247-3.935-2.582-3.757-10.247-11.581-10.247-7.586 0-7.784 7.731-11.581 10.247-3.869-2.562-3.75-10.247-11.581-10.247-7.6 0-7.646 7.646-11.581 10.247-3.592-2.357-3.678-10.24-11.581-10.247 0 12.129-.68 4.192 2.529 10.392 1.479 2.852 3.354 5.711 6.193 6.728 3.651 1.307 6.563.39 9.217-2.3 3.922-3.975 2.5-6.484 5.671-7.249Z" data-name="Path 31179"/><path fill="#2a2c32" fill-rule="evenodd" d="M39.22 101.766c0 2.06 2.608 5.236 4.278 7.745 2.615 3.922 3.711 4.727 8.194 4.727 5.764 0 7.414-6.378 10.075-9.534l.654-.753c4.622 2.74 3.03 10.286 12.432 10.286 6.649 0 7.613-8.048 10.7-10.247 4.338 2.872 3.651 10.247 12.03 10.247 2.905 0 3.876-1.05 5.52-2.5 2.39-2.1 3.407-6.18 5.612-7.751 2.872 1.9 5.817 11.937 11.732 9.956l.324-6.833c-3.816-1.9-4.351-10.247-10.722-10.247-7.606 0-7.8 3.1-12.472 10.247-5.13-3.394-2.562-10.247-12.921-10.247-4.846 0-7.87 6.616-10.247 10.247-4.826-3.189-2.984-10.247-12.472-10.247-7.012 0-7.269 7.685-11.138 10.247l-4-6.246c-2.3-3.321-3.856-4-7.58-4v4.9Z" data-name="Path 31180"/><path fill="#00a5c9" fill-rule="evenodd" d="M220.508 74.142c.489 3.968 5.282 30.958 6.266 32.946l16.024-.007 5.909-33.018c-5.1.033-3.856-1.327-7.692-2.324-2.945.891-3.2 2.443-6.688 2.357-2.753-.066-3.717-1.637-6.233-2.383-3.869 1.512-2.793 2.232-7.593 2.43Z" data-name="Path 31181"/><path fill="#e2e1e1" fill-rule="evenodd" d="M615.211 484.439c2.443 1.558 8.543 8.339 11.046 10.808 1.816 1.8 3.763 3.314 5.586 5.11 1.631 1.6 3.783 4.536 5.731 5.46l.007-23.28 20.428-.079c0-1.961.139-.673-.865-1.631l-6.371-6.087c-.522-.522-.891-.819-1.4-1.268l-11.409-11.29c-1.631 1.05-22.151 21.18-22.745 22.257Z" data-name="Path 31182"/><path fill="#072b3e" fill-rule="evenodd" d="M203.975 511.205c-.033.073-.1.1-.1.2s-.066.185-.066.224l.218 2.6c-.178 1.736-.872 1.109-.132 3.327 2.311.773 84.768.291 94.592.291l-.073-6.84c-2.562-.786-59.9-.291-70.764-.291-4.074 0-21.4-.924-23.689.482Z" data-name="Path 31183"/><path fill="#072b3e" fill-rule="evenodd" d="M719.033 489.787h6.239c1.776 0 1.505-.37 2.707-.423 1.314-.059 1.354.383 3.083.423v11.581h-12.029Zm-7.573.891h-4.008l.165 7.3 3.843.277v10.7h11.58l.165 4.179a22.648 22.648 0 0 0 7.131.112l.277-4.292 7.738-.165c.64-3.909.5-21.775.112-26.284-4.655-.766-21.174-.29-27.01-.277v8.464Z" data-name="Path 31184"/><path fill="#072b3e" fill-rule="evenodd" d="M645.08 562.842h12.03v11.579h-12.03Zm.779-11.581c-.548 1.188-.33 2.522-.33 4.008-1.769.04-2.073.436-4 .469-1.538.02-3.129-.238-3.691-.132-.673 1.717-.687 24.165-.039 26.106 2.066.693 24.521.693 26.588 0 .786-2.35.29-5.619.29-8.167l3.724-.112.317-7.012c-2.119-.482-1.743 0-4.041 0 0-2.753.561-8.557-.33-10.808-2.78-.482-7.7.911-10.96-.178l-.429-4.325c-1.935-.581-5.559-.673-7.1.165Z" data-name="Path 31185"/><path fill="#072b3e" fill-rule="evenodd" d="M719.033 562.842h12.029v11.581h-12.029Zm4.338-11.581c-.548 1.188-.33 2.522-.33 4.008-2.542.614-9.157 1.116-11.581 0 0 2.78.489 8.517-.29 10.841-1.453.456-2.152-.225-3.387.178a12.752 12.752 0 0 0-.04 6.952l3.717.337c0 2.509-.489 5.77.3 8.127 2.067.693 24.521.693 26.588 0 .647-1.941.64-24.389-.04-26.106-.832-.271-2.139.125-3.677.132a27.328 27.328 0 0 1-4.008-.469l-.106-4.166c-1.967-.588-5.592-.673-7.137.159Z" data-name="Path 31186"/><path fill="#f90a55" fill-rule="evenodd" d="M1354.241 268.865c3.387-4.773 8.425-16.149 10.6-21.94 1.816-4.833 2.8-7.956.072-12.776-4.179-7.388-16.03-8.266-21.094-.324-2.984 4.681-1.981 8.022-.3 12.842 1.268 3.631 8.49 19.814 10.729 22.191Z" data-name="Path 31187"/><path fill="#072b3e" fill-rule="evenodd" d="M645.083 489.787h7.13c2.766 0 1.6-.792 4.9 0v11.581h-12.03Zm-7.514 16.037c-.092 1.73-.323 1.466.383 2.832l7.487-.026.238 4.265 7.078.191.1-4.318 11.554-.145.112-10.5 3.994-.33v-4.892l.218-1.776-4.047-2.674-.079-5.949a14.489 14.489 0 0 0-6.6-.04l-20.428.079-.007 23.28Z" data-name="Path 31188"/><path fill="#f90a55" fill-rule="evenodd" d="M1323.11 211.081c1.472.053 4.932 1.419 6.734 2.014 2.568.839 5.038 1.1 7.619 1.736 10.379 2.582 23 2.238 33.362.581 3.843-.614 11.382-2.113 14.657-3.611v1.347c.885-1.868.852-5.612.746-7.956l-63.838.073c-.079 1.849-.059 4.371.719 5.81Z" data-name="Path 31189"/><path fill="#f90a55" fill-rule="evenodd" d="M653.102 403.487c1.129.4 1.505 1.2 2.575 2.185 1.32 1.208 2.179 1.433 2.3 3.037 2.238.522 1.294 1.611 3.585 2.225v1.122c1.783.251 3.169 2.747 4.833 3.843l.218 1.274c2.02.178 2.047 1.472 3.862 2.674l-.449.885 1.294-.026c.8.839 1.42 1.512 2.238 2.3 1.294 1.248 1.717 1.109 1.915 2.634l13.607-13.469a22.336 22.336 0 0 0-3.882-3.928l-2.218-2.232a5.086 5.086 0 0 0-.667-.667c-.542-.456-.852-.574-1.492-1.182-1-.944-1.915-1.928-2.885-2.905-3.38-3.38-7.56-8.246-11.468-10.8-1.327.878-12.71 11.871-13.363 13.046Z" data-name="Path 31190"/><path fill="#08bfe6" fill-rule="evenodd" d="m907.913 160.574.172 1.948 2.053.337 79.3-.059v-7.132h-81.525Z" data-name="Path 31191"/><path fill="#08bfe6" fill-rule="evenodd" d="m907.913 244.767.172 1.954 2.053.337 79.3-.059v-7.131h-81.525Z" data-name="Path 31192"/><path fill="#08bfe6" fill-rule="evenodd" d="M907.913 205.569h81.526v-7.131h-81.526Z" data-name="Path 31193"/><path fill="#2a2c32" fill-rule="evenodd" d="M542.215 402.511a8.9 8.9 0 0 1-4.5-4.49c.39-.541 10.6-10.485 11.581-11.138l4.457 4.008c-.3 1.1-10.029 10.471-11.548 11.62Zm-.489 10.273c2.02-.753 9.428-8.5 11.356-10.537 3.281-3.46 8.5-7.579 11.138-10.914.343-1.261-2.707-3.149-5.454-5.9-10.029-10.029-8.814-9.97-26.284 7.348-2.436 2.416-4.06 4.5-2.5 8.068.541 1.235 10.22 10.782 11.746 11.937Z" data-name="Path 31194"/><path fill="#2a2c32" fill-rule="evenodd" d="m742.669 91.129-.033-7.626c1.743.423 1.736.838 3.262 1.637l3.427 1.921-6.655 4.06Zm-7.276 12.089c1.347.231 28.463-15.865 28.667-16.116l-7.018-4.192c-4.3-2.245-19.695-11.686-21.973-11.884 0 4.767-.634 29.75.33 32.193Z" data-name="Path 31195"/><path fill="#072b3e" fill-rule="evenodd" d="M559.434 139.637c-.819 1.769-.33 4.985-.33 7.131h58.807c0-2.3.416-5.163-.291-7.282-1.426-.475-56.259-.885-58.18.152Z" data-name="Path 31196"/><path fill="#072b3e" fill-rule="evenodd" d="M200.483 253.68h60.583l1.915-.178a37.2 37.2 0 0 0-.02-6.616l-1.888-.4-60.6.066v7.124Z" data-name="Path 31197"/><path fill="#08bfe6" fill-rule="evenodd" d="m907.913 177.502.172 1.948 2.053.337 56.582-.059v-7.125h-58.807Z" data-name="Path 31198"/><path fill="#08bfe6" fill-rule="evenodd" d="M907.913 222.497h58.807v-7.131h-58.807Z" data-name="Path 31199"/><path fill="#08bfe6" fill-rule="evenodd" d="M907.913 263.927h58.807v-7.131h-58.807Z" data-name="Path 31200"/><g filter="url(#b)" transform="translate(.001)"><path fill="#fff" fill-rule="evenodd" d="m1152.93 540.436 5.922-4.615c-.178-.191-.3-.416-.343-.337l-2.456-2.047a19.569 19.569 0 0 1-2.674-2.119l-20.041-14.888c-1.3.984-3.724 3.862-4.159 5.487l17.635 13.746c-1.32 2.423-15.667 11.481-17.813 14.387l4.443 5.229 19.5-14.849Z" data-name="Path 31201"/></g><g filter="url(#c)" transform="translate(.001)"><path fill="#fff" fill-rule="evenodd" d="M1071.858 531.278c-1.413 1.783-4.483 2.45-5.348 4.833l2.555 1.9c.99.832 1.782 1.393 2.793 2.218 4.919 2.383 15.865 13.489 20.111 14.915l3.975-5.229c-2.126-2.615-16.156-11.93-17.734-14.255 3.077-3.116 16.539-11.838 17.793-14.327l-3.909-4.945c-3.504 1.062-15.522 12.296-20.236 14.89Z" data-name="Path 31202"/></g><g filter="url(#d)" transform="translate(.001)"><path fill="#fff" fill-rule="evenodd" d="M1108.812 562.806c1.34-2.8 15.45-50.594 15.516-52.469l-6.7-1.7-15.456 52.4a16.961 16.961 0 0 0 6.642 1.769Z" data-name="Path 31203"/></g><path fill="#072b3e" fill-rule="evenodd" d="m687.097 520.903 4.655 15.615c-3.249-.026-12.327-3.572-16.486-4.384-1.809.251-4.477 3.347-5.559 4.873.964 1.849 13.291 4.674 15.912 5.341 5.605 1.426 11.27 3.545 16.922 4.906-.238-2.674-3.869-12.4-4.806-16.13l-3.572-12.016c-.6-2.311-.172-2.04-1.868-3.711-1.7.555-5.071 3.479-5.2 5.506Z" data-name="Path 31204"/><path fill="#072b3e" fill-rule="evenodd" d="M543.839 233.186c-.713 1.532-.607 5.123-.04 6.833 2.786.931 39.826.291 46.038.291v-7.573c-5.439 0-44.056-.601-45.998.449Z" data-name="Path 31205"/><path fill="#072b3e" fill-rule="evenodd" d="M597.41 240.31h44.1l1.948-.165.343-2.053-.06-3.123-.165-1.948-2.06-.343-44.11.066Z" data-name="Path 31206"/><path fill="#072b3e" fill-rule="evenodd" d="M651.319 240.31h44.1l1.948-.165.337-2.053-.059-3.123-.165-1.948-2.053-.343-44.111.066Z" data-name="Path 31207"/><path fill="#072b3e" fill-rule="evenodd" d="m670.03 387.325 4.793 5 2.978-2.575a13.752 13.752 0 0 1 3.321-2.912l11.66 11.581-1.492 1.261c-.462.423-.885.885-1.334 1.34-1.162 1.162-2.113 1.7-2.6 3.268l4.589 4.773c1.565-.753 8.847-6.675 8.854-10.6.013-4.74-5.54-7.923-8.616-11.026-1.644-1.664-3.242-3.242-4.9-4.9-1.855-1.855-3.341-3.559-6.134-3.7-3.479-.185-9.27 5.685-11.125 8.491Z" data-name="Path 31208"/><path fill="#072b3e" fill-rule="evenodd" d="M651.319 253.68h44.1l1.948-.165.337-2.053-.059-2.687-.165-1.948-2.053-.337-44.111.059Z" data-name="Path 31209"/><path fill="#072b3e" fill-rule="evenodd" d="M597.41 253.68h46.335v-7.131H597.41Z" data-name="Path 31210"/><path fill="#072b3e" fill-rule="evenodd" d="M543.509 253.68h46.329v-7.131h-46.329Z" data-name="Path 31211"/><path fill="#e2e1e1" fill-rule="evenodd" d="m1066.397 177.945.99-.469a7.006 7.006 0 0 0 4.463 5.368c-1.426-5.909-1.426-4.76 1.241-7.665 5.3.2 3.2 2.4 9.283.37l8.629-2.951a47.325 47.325 0 0 0-2.225-7.131c-1.862.931-2.892 2.476-4.608 1.934l-.779-5.051c1.948-2.905 7.949-5.407 10.286-8.207-11.085 2.027-23.781 13.2-27.287 23.795Z" data-name="Path 31212"/><path fill="#072b3e" fill-rule="evenodd" d="m402.66 506.755-.158.7c.3 4.186-.8 3.473.079 6.094 1.816.607 30.12.607 31.936 0a13.5 13.5 0 0 0 0-6.992c-1.538-.508-30.259-.786-31.857.191Z" data-name="Path 31213"/><path fill="#2a2c32" fill-rule="evenodd" d="m1224.174 86.138.509.436.244.218c.059.059.165.158.231.224l3.1 3.13c-.9 2.324-2.093 1.532-4.047 4.49a18.906 18.906 0 0 0 2.542 2.357c.066.066.152.172.211.231l2.146 2.311c2.04-.548 3.143-2.846 4.9-4.008l3.9 4.12c1.968-.819 3.367-2.786 4.833-4.3.4-.416.079.053.627-.713l-4.093-4.371c1.03-1.4 3.2-2.832 4.093-4.093l-4.787-5.011c-1.974.66-2.965 2.522-4.529 3.711-1.9-.588-2.892-2.456-4.457-3.638-1.842.647-4.212 3.308-5.42 4.9Z" data-name="Path 31214"/><path fill="#072b3e" fill-rule="evenodd" d="m759.572 385.985 4.093 4.371-3.882 3.909a5.041 5.041 0 0 0-.251.218l5.282 5.407c1.03-1.505 2.984-3.651 4.6-4.146 1.565 1.188 2.555 3.05 4.457 3.638l4.965-4.839-4.146-4.146 4.14-4.331c-1.228-1.809-1.552-1.347-2.641-2.436-1.162-1.162-.759-1.816-2.793-2.555-1.9 2.152-2.5 1.736-4.008 4.008l-4.371-4.094-5.434 4.985Z" data-name="Path 31216"/><path fill="#072b3e" fill-rule="evenodd" d="m884.752 249.665-3.044-2.747c-1.6 1.089-4.476 3.737-5.011 5.46l8.913 8.022c1.512-1.023 6.662-7.817 8.022-9.428 2.6-3.07 5.7-6.589 8.088-9.732-.548-1.769-3.777-3.876-5.381-4.939a63.807 63.807 0 0 0-5.79 6.682c-1.01 1.38-4.569 5.876-5.79 6.682Z" data-name="Path 31217"/><path fill="#072b3e" fill-rule="evenodd" d="m884.752 208.242-3.447-2.819c-1.406 2.093-3.909 3.255-4.615 5.533a88.816 88.816 0 0 0 8.946 7.982c1.453-.957 15.707-18.374 16.037-19.6a24.193 24.193 0 0 0-5.79-4.457c-.746 1.492-9.8 12.478-11.138 13.363Z" data-name="Path 31218"/><path fill="#072b3e" fill-rule="evenodd" d="m884.865 164.913-3.6-3.1-4.641 5.355c1.149 1.664 7.269 6.959 9.012 8.108 1.644-1.089 15.641-18.143 16.037-19.6l-5.473-4.325-1.314 1.538a14.533 14.533 0 0 0-1.505 1.624l-5.52 6.952a10.3 10.3 0 0 1-1.452 1.664l-1.393 1.591c-.026.033-.106.125-.159.191Z" data-name="Path 31219"/><path fill="#e2e1e1" fill-rule="evenodd" d="M1068.292 210.91h.442l-.37.522Zm0 0h-.429l.878 1.565 3.744-3.618c1.717-1.281 2.852-2.383 4.463-3.559 1.73-1.261 7.282-5.79 8.286-7.309-.456-1.882-3.275-6.847-4.457-9.8l-1.783-3.116c-1.208.324-3.1 2.159-4.041 3.083-5.051 4.932-2.529 1.406-2.621 8.959-.046 3.678-3.116 8.068-3.526 9.428-.554 1.829.119 2.991-.5 4.364Z" data-name="Path 31220"/><path fill="#f7f9f4" fill-rule="evenodd" d="M675.272 532.134c4.159.805 13.238 4.357 16.486 4.384l-4.655-15.615c-2.159 0-.568-.456-2.218 1.116-2.364 2.238-9.072 7.863-9.606 10.115Z" data-name="Path 31245"/><path fill="#e2e1e1" fill-rule="evenodd" d="M1096.688 157.457a50.821 50.821 0 0 0 .442 9.917c.7.119 7.1-.759 8.418-2.5 1.433-1.895 4.4-4.628 4.615-6.972-3.611-.073-10.1-2.265-13.482-.442Z" data-name="Path 31264"/><path fill="#fff" fill-rule="evenodd" d="M412.862 407.88c3.433-.475 12.181-6 13.409-8.973a17.348 17.348 0 0 0-5.269-4.206c-1.558 1.023-2.912 2.628-4.773 3.889-1.934 1.307-3.7 1.9-5.665 3.063l2.3 6.233Z" data-name="Path 31265"/><path fill="#fff" fill-rule="evenodd" d="M426.779 370.839c-.185 4.2 1.36 1.869.132 12.412 2 .68 5.189 1.756 7.144 1.155a36.45 36.45 0 0 0-.475-15.067c-1.723-.357-5.156.779-6.8 1.5Z" data-name="Path 31266"/><path fill="#fff" fill-rule="evenodd" d="m14.916 269.796 7.071.673c.5-4.747 2.133-8.649 2.74-12.782a16.128 16.128 0 0 0-6.4-2.192c-1.855 2.852-3.235 10.65-3.4 14.3Z" data-name="Path 31267"/><path fill="#fff" fill-rule="evenodd" d="M41.722 335.087c2.027 2.4 9.732 7.613 12.683 8.081l3.037-5.638c-.6-.621-10.286-7.071-11.8-7.428l-3.922 4.985Z" data-name="Path 31268"/><path fill="#fff" fill-rule="evenodd" d="M409.249 353.415c1.921 1.076 3.843 1.505 5.856 2.786 1.723 1.1 3.5 2.773 5 3.625l5.011-4.457c-1.73-3.116-10.359-7.89-14.057-8.319l-1.809 6.365Z" data-name="Path 31269"/><path fill="#fff" fill-rule="evenodd" d="M68.066 348.992c3.618 1.413 11.112 2.581 14.935 2.766l.607-6.932c-4.608-.258-9.983-2.179-13.456-2.278Z" data-name="Path 31270"/><path fill="#fff" fill-rule="evenodd" d="M24.688 242.101c1.736 1.129 4.021 2.806 6.068 3.011l7.632-10.57c-1.287-1.439-3.638-3.876-5.407-4.278-2.001 2.499-7.923 8.963-8.293 11.837Z" data-name="Path 31271"/><path fill="#fff" fill-rule="evenodd" d="M382.53 409.786c1.954.568 12.36.429 14.842.139l-.2-6.866-14.651.191.007 6.536Z" data-name="Path 31272"/><path fill="#fff" fill-rule="evenodd" d="M353.123 409.767c2.067.6 12.142.4 14.783.185l-.125-6.88-14.67.145Z" data-name="Path 31273"/><path fill="#fff" fill-rule="evenodd" d="M71.611 207.563 73.097 214c4.325-.264 8.676-1.519 13.5-1.73l-.053-6.906c-3.049-.013-12.573.772-14.933 2.199Z" data-name="Path 31274"/><path fill="#fff" fill-rule="evenodd" d="M44.66 219.823c.271 1.769 2.595 4.16 3.915 5.586l11.607-6.926-2.681-5.836c-3.248.475-10.016 4.991-12.848 7.177Z" data-name="Path 31275"/><path fill="#fff" fill-rule="evenodd" d="M22.905 312.533c1.38 4.542 5.414 7.989 7.712 12.023 1.631-.409 4.509-2.72 5.586-4.034l-7.23-10.993a15.054 15.054 0 0 0-6.068 3Z" data-name="Path 31276"/><path fill="#fff" fill-rule="evenodd" d="m782.607 35.187 11.23 6.649c1.538-1.32 3.466-3.618 3.981-5.553-2.344-1.968-9.243-6.279-11.964-7.183a16.812 16.812 0 0 0-3.247 6.087Z" data-name="Path 31277"/><path fill="#fff" fill-rule="evenodd" d="m155.402 352.094 14.42.066.139-6.952-14.571.007Z" data-name="Path 31278"/><path fill="#fff" fill-rule="evenodd" d="M651.246 45.929a12.509 12.509 0 0 0 5.038 5.236l9.95-8.22c-.442-1.42-2.753-4.146-3.757-5.328-3.295.687-8.015 6.312-11.231 8.306Z" data-name="Path 31279"/><path fill="#fff" fill-rule="evenodd" d="m270.817 352.081 14.433.092.106-6.906-14.6-.06Z" data-name="Path 31280"/><path fill="#fff" fill-rule="evenodd" d="m299.69 352.128 14.182.02c.621-2.04.323-4.721.3-6.84l-14.525-.119.046 6.939Z" data-name="Path 31281"/><path fill="#fff" fill-rule="evenodd" d="M14.547 284.229c.152 5.407 1.433 9.382 2.456 14.42l6.82-1.624c-.456-4.391-1.928-8.141-2.119-12.967Z" data-name="Path 31282"/><path fill="#fff" fill-rule="evenodd" d="M632.971 68.51c2.291 1.109 3.81 2.568 6.219 3.248 1.241-4.021 6.451-7.441 7.381-11.171l-4.991-3.572c-2.1.964-8.167 9.408-8.6 11.495Z" data-name="Path 31283"/><path fill="#fff" fill-rule="evenodd" d="M757.03 25.608c3.664.442 10.815 3.625 13.132 3.453.845-1.717 2.093-4.325 2.232-6.147-2.2-1.136-11.343-4.067-13.68-3.935l-1.69 6.629Z" data-name="Path 31284"/><path fill="#fff" fill-rule="evenodd" d="m101.038 212.145 14.307.007.152-6.965-14.307.02Z" data-name="Path 31285"/><path fill="#fff" fill-rule="evenodd" d="m241.9 352.055 14.512.079.02-6.853-14.354-.112Z" data-name="Path 31286"/><path fill="#fff" fill-rule="evenodd" d="m357.355 352.068 14.486.073v-6.886l-14.307-.073Z" data-name="Path 31287"/><path fill="#fff" fill-rule="evenodd" d="m97.631 352.074 14.479.079-.007-6.88-14.288-.1Z" data-name="Path 31288"/><path fill="#fff" fill-rule="evenodd" d="m804.837 50.538 9.058 9.25 5.414-4.2c-.971-1.849-8.108-9.118-9.844-10.082-1.6 1.01-4.034 3.235-4.628 5.031Z" data-name="Path 31289"/><path fill="#fff" fill-rule="evenodd" d="M674.784 29.602c.2 1.816 1.769 4.074 2.813 5.711 1.393.026 10.524-4.351 12.366-5.269l-2.39-6.312c-2.714.5-10.716 4.259-12.789 5.869Z" data-name="Path 31290"/><path fill="#fff" fill-rule="evenodd" d="m213.074 351.982 14.505.185-.02-6.913-14.3-.079Z" data-name="Path 31291"/><path fill="#fff" fill-rule="evenodd" d="m328.555 351.942 14.446.211.04-6.952-14.373-.013Z" data-name="Path 31292"/><path fill="#fff" fill-rule="evenodd" d="M839.651 339.075c-.31 3.387-.04 7.375-.1 10.848-.04 2.357-1.439 3.545 7.2 2.793l-.119-13.759-6.972.112Z" data-name="Path 31293"/><path fill="#fff" fill-rule="evenodd" d="m701.49 19.342 1.426 6.325 13.271-2.4c.3-2.133-.377-4.457-.594-6.721-2.516.079-11.845 1.254-14.1 2.793Z" data-name="Path 31294"/><path fill="#fff" fill-rule="evenodd" d="m632.119 83.411-6.206-2.621c-1.657 1.948-4.965 10.135-5.011 12.96a17.453 17.453 0 0 0 6.4 1.855l4.811-12.185Z" data-name="Path 31295"/><path fill="#fff" fill-rule="evenodd" d="m129.824 211.988 14.406.172.1-6.906-14.426-.033Z" data-name="Path 31296"/><path fill="#fff" fill-rule="evenodd" d="m729.946 22.175 13.865.766.581-6.873c-3.869-.211-11.118-1.136-14.406-.482l-.04 6.6Z" data-name="Path 31297"/><path fill="#fff" fill-rule="evenodd" d="M822.334 70.583c1.532 3.354 5.216 8.161 6.094 11.33a16.331 16.331 0 0 0 6.45-2.865c-.535-2.549-5-9.785-6.708-12-1.36.218-4.793 2.456-5.837 3.532Z" data-name="Path 31298"/><path fill="#fff" fill-rule="evenodd" d="M839.631 147.507c-.264 2.093-.436 11.864.2 13.627l6.893-.033-.093-13.74-6.992.145Z" data-name="Path 31299"/><path fill="#fff" fill-rule="evenodd" d="m184.241 351.909 14.413.271v-6.959l-14.327-.046Z" data-name="Path 31300"/><path fill="#fff" fill-rule="evenodd" d="m126.563 352.062 14.472.066-.059-6.8-14.248-.158Z" data-name="Path 31301"/><path fill="#fff" fill-rule="evenodd" d="m837.598 107.179 6.655-1.367c-.277-4.292-2.436-9.428-3.5-13.687l-6.767 2.126 3.611 12.934Z" data-name="Path 31302"/><path fill="#fff" fill-rule="evenodd" d="m839.598 133.701 7.183-.092-.251-13.832-7.157.436Z" data-name="Path 31303"/><path fill="#fff" fill-rule="evenodd" d="M839.829 284.46c-.674 1.657-.423 11.184-.185 13.541l7.078-.086-.1-13.707-6.794.251Z" data-name="Path 31304"/><path fill="#fff" fill-rule="evenodd" d="m839.711 270.701 7 .02-.025-13.892-7.144.244Z" data-name="Path 31305"/><path fill="#fff" fill-rule="evenodd" d="m839.589 380.115 7.17-.112-.04-13.6-7.177.211Z" data-name="Path 31306"/><path fill="#fff" fill-rule="evenodd" d="m839.671 215.934 7.051-.059-.066-13.773-7.1.139Z" data-name="Path 31307"/><path fill="#fff" fill-rule="evenodd" d="m839.632 243.255 7.131-.066-.218-13.733-6.966.073Z" data-name="Path 31308"/><path fill="#fff" fill-rule="evenodd" d="m839.658 188.455 7.1-.066-.218-13.713-6.972.053Z" data-name="Path 31309"/><path fill="#fff" fill-rule="evenodd" d="m839.631 325.263 7.124-.033-.1-13.588-7.13.2Z" data-name="Path 31310"/><path fill="#072b3e" fill-rule="evenodd" d="M284.57 201.561c-.713 1.532-.607 5.123-.04 6.833 2.456.819 8.788.29 11.732.29v-7.573c-2.904.001-9.493-.738-11.692.45Z" data-name="Path 31311"/><path fill="#072b3e" fill-rule="evenodd" d="M284.57 231.852c-.733 1.585-.436 4.707-.218 6.569 1.2.819 9.309 1.043 11.62.271.706-2.119.29-4.978.29-7.282-2.905 0-9.494-.739-11.693.449Z" data-name="Path 31312"/><path fill="#072b3e" fill-rule="evenodd" d="M217.708 208.386c1.8.6 9.639.6 11.442 0a13.475 13.475 0 0 0 0-6.985c-2.152-.72-9.118-.416-11.66-.218-.159 2.218-.469 5.156.218 7.2Z" data-name="Path 31313"/><path fill="#072b3e" fill-rule="evenodd" d="M268.044 208.386c1.8.6 9.639.6 11.442 0a13.474 13.474 0 0 0 0-6.985c-2.152-.72-9.118-.416-11.66-.218-.158 2.218-.469 5.156.218 7.2Z" data-name="Path 31314"/><path fill="#072b3e" fill-rule="evenodd" d="m167.074 236.751.165 1.948a40.389 40.389 0 0 0 10.445.1c.528-.092 1.037-.013 1.347-1.215a12.817 12.817 0 0 0-.218-5.889c-3.823-.7-7.857-.317-11.732-.29v5.348Z" data-name="Path 31315"/><path fill="#072b3e" fill-rule="evenodd" d="m250.826 206.46.165 1.948 2.053.337 7.58-.059 1.954-.165.337-2.053-.059-5.355h-12.03Z" data-name="Path 31316"/><path fill="#072b3e" fill-rule="evenodd" d="m200.483 206.46.172 1.948 2.053.337 7.579-.059 1.948-.165.337-2.053-.059-5.355h-12.03Z" data-name="Path 31317"/><path fill="#072b3e" fill-rule="evenodd" d="M167.074 208.684h9.8l1.954-.165.337-2.053-.059-3.13-.172-1.948-2.053-.337-9.8.059Z" data-name="Path 31318"/><path fill="#072b3e" fill-rule="evenodd" d="m217.418 236.751.165 1.948a37.691 37.691 0 0 0 10.161.092 10 10 0 0 0 1.7-.264l-.073-6.84c-3.935-.64-7.976-.317-11.957-.29v5.348Z" data-name="Path 31319"/><path fill="#072b3e" fill-rule="evenodd" d="m267.755 236.752.165 1.948c1.736.284 9.62.64 10.98.112.462-.178.271.555.739-.832l-.026-6.292c-3.9-.64-7.916-.3-11.864-.277v5.348Z" data-name="Path 31321"/><path fill="#072b3e" fill-rule="evenodd" d="M234.267 201.594c-.04.073-.1.112-.1.218l.178 6.866h11.581v-7.573c-2.786 0-9.7-.72-11.66.482Z" data-name="Path 31322"/><path fill="#072b3e" fill-rule="evenodd" d="M184.003 205.569c0 2.238-.376 1.254 0 3.116h11.581v-7.573h-11.581Z" data-name="Path 31325"/><path fill="#072b3e" fill-rule="evenodd" d="m234.267 231.886-.04 6.312c1.743.687 9.507 1.116 11.4.482.706-2.119.3-4.978.3-7.282-2.786 0-9.7-.72-11.66.482Z" data-name="Path 31326"/><path fill="#072b3e" fill-rule="evenodd" d="M184.003 235.86c0 1.618.158.918-.442 2.225 2.859 1.446 9.613 1.446 12.472 0-.792-1.717-.442-3.882-.442-6.682H184.01v4.457Z" data-name="Path 31327"/><path fill="#072b3e" fill-rule="evenodd" d="M284.57 216.706c-.779 1.67-.33 4.648-.33 6.682h12.03v-7.131c-2.905 0-9.494-.739-11.693.449Z" data-name="Path 31328"/><path fill="#072b3e" fill-rule="evenodd" d="M250.826 238.534c1.816.37.462.191 2.238.046l9.461.073c.64-3.03.37-3.849.33-7.243h-12.029v7.131Z" data-name="Path 31329"/><path fill="#072b3e" fill-rule="evenodd" d="M284.234 253.68h12.03v-4.457l.264-2.317-2.034-.423-10.26.066Z" data-name="Path 31330"/><path fill="#072b3e" fill-rule="evenodd" d="M200.483 238.534h8.907c2.238 0 1.261.376 3.116 0v-7.131h-12.03v7.131Z" data-name="Path 31331"/><path fill="#072b3e" fill-rule="evenodd" d="M250.826 223.389h12.03v-7.131h-12.03Z" data-name="Path 31332"/><path fill="#072b3e" fill-rule="evenodd" d="M200.483 223.389h12.029v-7.131h-12.029Z" data-name="Path 31333"/><path fill="#072b3e" fill-rule="evenodd" d="M167.074 253.68h12.03v-7.131h-12.03Z" data-name="Path 31334"/><path fill="#072b3e" fill-rule="evenodd" d="M217.418 223.388h12.02v-4.906l-.165-1.948-2.053-.337-9.8.059Z" data-name="Path 31335"/><path fill="#072b3e" fill-rule="evenodd" d="M267.754 223.388h12.03v-4.906l-.165-1.948-2.06-.337-9.8.059Z" data-name="Path 31336"/><path fill="#072b3e" fill-rule="evenodd" d="M267.754 253.68h9.8l1.948-.165.337-2.053-.059-4.912h-12.026Z" data-name="Path 31337"/><path fill="#072b3e" fill-rule="evenodd" d="M167.074 223.388h9.8l1.954-.165.337-2.06-.059-2.681-.172-1.948-2.053-.337-9.8.059Z" data-name="Path 31338"/><path fill="#072b3e" fill-rule="evenodd" d="M440.895 513.549c1.756.588 8.8.588 10.551 0 .647-1.928.376-4.688.218-6.761-2.588-.937-6.021-.627-8.867-.555-2.3.059-2.212.469-2.218 2.681a15.1 15.1 0 0 0 .317 4.628Z" data-name="Path 31341"/><path fill="#072b3e" fill-rule="evenodd" d="M234.267 216.74c-.383.786.026 1.188.086 2.615.059 1.268-.013 2.747-.013 4.034h11.58v-7.131c-2.786 0-9.7-.72-11.66.482Z" data-name="Path 31342"/><path fill="#072b3e" fill-rule="evenodd" d="m184.003 251.006-.264 2.317 2.04.423 8.028-.066 1.915-.178-.211-2.482.073-4.47h-11.581Z" data-name="Path 31343"/><path fill="#072b3e" fill-rule="evenodd" d="M184.003 223.389h11.581v-7.131h-11.581Z" data-name="Path 31345"/><path fill="#f90a55" fill-rule="evenodd" d="M231.072 8.818a13.5 13.5 0 0 0 6.992 0 19.454 19.454 0 0 0 0-8.326c-1.347-.449-6.371-.964-7.117.317-.588 1.01-.264 6.833.125 8.009Z" data-name="Path 31347"/><path fill="#f90a55" fill-rule="evenodd" d="M191.095 19.837a24.992 24.992 0 0 0 2.593 2.753l1.644 1.472c.092.086.337.383.423.469.621.607.086.178.72.621 1.538-.37 4.767-3.6 5.381-4.417-.5-1.631-4.325-5.282-5.83-6.279-1.571 1.149-4.371 3.559-4.939 5.388Z" data-name="Path 31348"/><path fill="#f90a55" fill-rule="evenodd" d="M267.312 93.751c.99 1.5 4.648 5.328 6.272 5.83l4.965-4.84c-1.717-2.542-4.6-3.942-5.889-5.889a21.429 21.429 0 0 0-5.348 4.9Z" data-name="Path 31349"/><path fill="#fff" fill-rule="evenodd" d="m386.267 352.094 9.191.416.178-6.959-9.184-.456Z" data-name="Path 31350"/><path fill="#f90a55" fill-rule="evenodd" d="m182.194 31.814 7.117 4.087c1.525-1.05 3.631-4.589 4.047-6.305l-7.573-4.008-3.592 6.219Z" data-name="Path 31352"/><path fill="#f90a55" fill-rule="evenodd" d="M177.434 68.466a56.376 56.376 0 0 0 1.512 6.272c1.644.555 6.893-.739 8.616-1.934l-1.789-6.682c-1.552.436-7.249 1.552-8.339 2.337Z" data-name="Path 31353"/><path fill="#f90a55" fill-rule="evenodd" d="M284.234 60.785h8.913v-7.13h-8.913Z" data-name="Path 31354"/><path fill="#f90a55" fill-rule="evenodd" d="m202.232 10.032 4.457 7.111 6.263-3.611-4.008-7.1c-1.651.172-5.3 2.337-6.708 3.6Z" data-name="Path 31355"/><path fill="#f90a55" fill-rule="evenodd" d="m282.009 73.257 7.976 1.961c.693-1.578 1.849-5.308 1.71-6.741-1.32-.951-6.49-1.895-8.352-2.344-.224 2.568-1.334 4.325-1.34 7.131Z" data-name="Path 31356"/><path fill="#f90a55" fill-rule="evenodd" d="M282.009 41.183a6.84 6.84 0 0 0 .614 3.4c.251.832.231 1.083.442 1.783l.733 1.5c1.921-.04 5.949-1.287 8.015-1.783l-1.631-7.164c-2.488.699-5.869 1.201-8.173 2.264Z" data-name="Path 31357"/><path fill="#f90a55" fill-rule="evenodd" d="M177.315 45.639c1.188.819 7.243 2.218 8.352 2.113l2.04-6.53-8.563-2.423Z" data-name="Path 31358"/><path fill="#f90a55" fill-rule="evenodd" d="M275.809 84.415c2.192 1.1 5.883 3.585 7.533 3.988.073-.079.185-.3.218-.231l3.347-6.008-7.546-4.06-3.552 6.305Z" data-name="Path 31359"/><path fill="#f90a55" fill-rule="evenodd" d="M267.424 20.576c1.433 1.453 3.347 4.014 5.269 4.608l5.856-5.731-5.1-4.9a23.909 23.909 0 0 0-6.025 6.023Z" data-name="Path 31360"/><path fill="#f90a55" fill-rule="evenodd" d="m182.333 82.5 3.479 5.889c2.4-.574 5.454-2.621 7.547-3.994l-3.506-6.272c-.647.363-1.076.647-1.75 1.01l-5.381 3.024c-.046.033-.165.139-.2.172s-.125.112-.185.165Z" data-name="Path 31361"/><path fill="#f90a55" fill-rule="evenodd" d="m216.137 3.226 2.053 8.147a56.867 56.867 0 0 0 6.913-1.7c.429-1.3-1.446-6.239-1.895-8.134l-7.065 1.69Z" data-name="Path 31362"/><path fill="#f90a55" fill-rule="evenodd" d="M244.145 9.999c2.331 0 4.509.812 6.682 1.334l2.225-8.464-7.1-1.479c-.654 2.826-1.822 5.9-1.816 8.609Z" data-name="Path 31363"/><path fill="#f90a55" fill-rule="evenodd" d="m190.579 94.975 2.139 1.637c.2.191.489.416.72.614a21.96 21.96 0 0 0 2.595 2.3l5.83-5.308c-.528-1.723-3.407-4.371-4.939-5.381l-6.345 6.138Z" data-name="Path 31364"/><path fill="#f90a55" fill-rule="evenodd" d="M276.218 29.602a11.123 11.123 0 0 0 3.565 6.239c1.631-.4 6.226-3.083 7.131-4.457l-3.436-5.433Z" data-name="Path 31365"/><path fill="#f90a55" fill-rule="evenodd" d="m256.438 13.459 6.417 3.664c.31-.614.7-1.182.977-1.7.33-.6.211-.528.416-.918.673-1.287 2.172-3.123 2.615-4.958-2.06-1.043-4.021-2.582-6.239-3.116Z" data-name="Path 31366"/><path fill="#072b3e" fill-rule="evenodd" d="M427.122 180.176c-.865 1.875-.33 5.315-.33 7.573h7.573c0-2.43.456-5.493-.291-7.725-1.776-.594-5.4-.68-6.952.152Z" data-name="Path 31367"/><path fill="#072b3e" fill-rule="evenodd" d="M676.593 566.408c-.819 1.77-.33 4.985-.33 7.13 2.43 0 5.493.456 7.725-.29.706-2.119.291-4.978.291-7.282-1.809 0-6.246-.33-7.692.449Z" data-name="Path 31368"/><path fill="#072b3e" fill-rule="evenodd" d="M723.371 520.97c-.746 1.6-.634 5.5-.04 7.282 2.119.706 4.978.29 7.282.29v-8.022c-2.204.001-5.453-.518-7.242.45Z" data-name="Path 31370"/><path fill="#072b3e" fill-rule="evenodd" d="M501.518 165.473c-.746 1.6-.634 5.5-.04 7.282 2.119.706 4.978.29 7.282.29v-8.015c-2.205 0-5.46-.515-7.243.449Z" data-name="Path 31371"/><path fill="#072b3e" fill-rule="evenodd" d="M427.083 202.597a13.475 13.475 0 0 0 6.985 0c.72-2.152.4-5.348.218-7.652-1.287-.1-6.4-.469-7.144.277s-.429 6.266-.059 7.375Z" data-name="Path 31372"/><path fill="#072b3e" fill-rule="evenodd" d="M501.558 180.208c-.462.944-.555 5.81-.073 7.243 2.119.706 4.978.29 7.282.29 0-2.43.456-5.493-.3-7.725-1.763-.588-5.473-.693-6.913.191Z" data-name="Path 31373"/><path fill="#2a2c32" fill-rule="evenodd" d="M676.263 498.251h8.022v-5.348l-.165-1.948-2.06-.337-5.8.06Z" data-name="Path 31374"/><path fill="#072b3e" fill-rule="evenodd" d="m426.792 170.82.165 1.948 2.053.337 5.355-.059v-8.023h-7.573Z" data-name="Path 31375"/><path fill="#f90a55" fill-rule="evenodd" d="M176.43 60.785h8.464v-7.13h-8.464Z" data-name="Path 31376"/><path fill="#072b3e" fill-rule="evenodd" d="M501.478 202.597c2.119.706 4.978.291 7.282.291v-8.016l-7.051.02c-.581 1.076-.852 5.843-.231 7.712Z" data-name="Path 31377"/><path fill="#072b3e" fill-rule="evenodd" d="M645.529 543.688h5.341l1.948-.165.343-2.053-.059-3.572-.165-1.948-2.06-.343-5.348.066Z" data-name="Path 31378"/><path fill="#072b3e" fill-rule="evenodd" d="M723.04 543.688h5.348l1.948-.165.337-2.053-.06-3.572-.165-1.948-2.053-.343-5.354.066Z" data-name="Path 31379"/><path fill="#2a2c32" fill-rule="evenodd" d="M691.858 498.251h5.79l1.948-.165.343-2.053-.066-3.13-.165-1.948-2.053-.337-5.8.06Z" data-name="Path 31380"/><path fill="#072b3e" fill-rule="evenodd" d="M691.858 566.407v7.13c2.43 0 5.487.456 7.725-.29a13.5 13.5 0 0 0 0-6.992c-2.694-.9-5.2.152-7.725.152Z" data-name="Path 31381"/><path fill="#072b3e" fill-rule="evenodd" d="m652.792 521.419-.581-.687-6.682-.225v8.042c2.3 0 5.163.416 7.282-.291a13.613 13.613 0 0 0-.02-6.833Z" data-name="Path 31382"/><path fill="#072b3e" fill-rule="evenodd" d="M471.675 225.164c-.779 1.677-.33 4.648-.33 6.682a19.806 19.806 0 0 0 8.015 0l-.073-6.84c-2.066-.614-6.008-.713-7.612.158Z" data-name="Path 31383"/><path fill="#072b3e" fill-rule="evenodd" d="m441.496 230.07.165 1.948c2.786.812 4.6-.007 6.035-.026 1.4-.02-.271.548 1.486-.026.6-2.846.416-4 .165-6.966-3.281-.541-4.351-.317-7.857-.277v5.348Z" data-name="Path 31384"/><path fill="#072b3e" fill-rule="evenodd" d="M501.518 210.467c-.713 1.532-.607 5.123-.04 6.833a23.476 23.476 0 0 0 6.952.409c.832-2.113.33-5.322.33-7.692-2.205.001-5.46-.514-7.242.45Z" data-name="Path 31385"/><path fill="#072b3e" fill-rule="evenodd" d="M486.484 231.852c1.967.475 5.744 1.056 7.461-.112a40.8 40.8 0 0 0 .231-6.682c-3.07-.64-4.245-.37-7.692-.33v7.131Z" data-name="Path 31386"/><path fill="#072b3e" fill-rule="evenodd" d="M426.792 217.598h7.573v-7.58h-7.573Z" data-name="Path 31387"/><path fill="#072b3e" fill-rule="evenodd" d="m543.509 139.637.073 6.84c2.337.7 5.2.29 7.5.29 0-2.3.416-5.163-.29-7.282a16.18 16.18 0 0 0-7.283.152Z" data-name="Path 31388"/><path fill="#072b3e" fill-rule="evenodd" d="m471.338 155.668.172 1.954 2.053.337 5.8-.059v-7.131h-8.025Z" data-name="Path 31389"/><path fill="#072b3e" fill-rule="evenodd" d="M441.496 157.9h5.79l1.948-.165.337-2.053-.059-4.912h-8.016Z" data-name="Path 31390"/><path fill="#072b3e" fill-rule="evenodd" d="m456.641 230.07.165 1.948c1.71.5 5.83.165 7.078-.053.641-3.037.37-3.849.33-7.243h-7.573Z" data-name="Path 31391"/><path fill="#072b3e" fill-rule="evenodd" d="m479.361 532.108 7.738-.165c.33-1.987.839-5.209-.284-6.847l-7.461-.112v7.131Z" data-name="Path 31392"/><path fill="#072b3e" fill-rule="evenodd" d="m426.792 231.848 2.872.323c1.505.132 3.565.264 4.589-.436l.112-7.012h-7.573v7.131Z" data-name="Path 31393"/><path fill="#2a2c32" fill-rule="evenodd" d="M1208.057 170.701c-.258 1.5.561 4.252.561 6.351a25.309 25.309 0 0 0 7.282-.739c.634-1.895-.594-4.919-.6-7.282-1.677.046-6.227.693-7.243 1.67Z" data-name="Path 31394"/><path fill="#2a2c32" fill-rule="evenodd" d="M1199.263 144.978c.132 1.565 1.908 5.17 2.674 6.682l6.675-2.694c-.138-1.69-.475-1.73-1.149-3.281-.416-.957-.35-.792-.707-1.519-.291-.588-.442-1.056-.812-1.862-1.776.185-4.839 1.822-6.681 2.674Z" data-name="Path 31395"/><path fill="#072b3e" fill-rule="evenodd" d="m501.557 225.204-.013 2.516a18.993 18.993 0 0 0-.356 3.684c3.341 1.7 4.344.733 7.573.449v-7.129c-2.173 0-5.554-.537-7.204.48Z" data-name="Path 31396"/><path fill="#2a2c32" fill-rule="evenodd" d="M1125.759 90.631c2.146.046 4.331 1.129 6.682 1.34a22.873 22.873 0 0 0 1.782-7.131l-7.025-1.347c-.8 1.334-1.439 5.487-1.439 7.144Z" data-name="Path 31397"/><path fill="#2a2c32" fill-rule="evenodd" d="M1112.395 83.953a19.072 19.072 0 0 0-.442 4.9l7.131.442a33.458 33.458 0 0 0 .891-7.131c-3.36 0-2.846-.588-7.573-.442v2.225Z" data-name="Path 31398"/><path fill="#2a2c32" fill-rule="evenodd" d="M1174.318 113.796c.872 1.32 3.935 4.047 5.381 4.5l4.774-4.589c-1.089-1.69-3.631-4.239-5.7-4.807a16.823 16.823 0 0 0-4.457 4.9Z" data-name="Path 31399"/><path fill="#072b3e" fill-rule="evenodd" d="M1040.225 550.819c0 2.3-.911 1.908-.152 4.16 3.083.568 3.935.33 7.283.29.541-4.3.6-3.05.277-6.847-3.229-.535-3.961-.317-7.408-.277v2.674Z" data-name="Path 31400"/><path fill="#072b3e" fill-rule="evenodd" d="M1007.227 623.842c.7 2.271 3.2 3.433 4.49 5.381 1.809-.911 4.846-3.486 5.348-5.348l-4.866-4.49c-1.222.515-4.107 3.308-4.978 4.457Z" data-name="Path 31401"/><path fill="#072b3e" fill-rule="evenodd" d="M426.792 157.9h7.573v-7.131h-7.573Z" data-name="Path 31402"/><path fill="#072b3e" fill-rule="evenodd" d="M456.641 157.9h7.573v-7.131h-7.573Z" data-name="Path 31403"/><path fill="#072b3e" fill-rule="evenodd" d="M486.484 157.9h5.8l1.915-.178-.211-2.482.079-4.47h-7.58Z" data-name="Path 31404"/><path fill="#072b3e" fill-rule="evenodd" d="M450.402 532.108h7.573v-4.9l-.165-1.954-2.053-.337-5.355.06Z" data-name="Path 31405"/><path fill="#072b3e" fill-rule="evenodd" d="M1040.522 528.252c1.71.568 5.348.1 6.992-.449a13.848 13.848 0 0 0-.152-6.833 23.849 23.849 0 0 0-3.612.436c-1.6.132-1.7-.4-3.519-.436 0 2.3-.416 5.163.291 7.282Z" data-name="Path 31406"/><path fill="#072b3e" fill-rule="evenodd" d="M985.432 639.026c.555 2.291 2.086 4.186 3.116 6.239 2.159-.522 4.813-2.344 6.682-3.565l-3.671-5.724a7.181 7.181 0 0 0-3.077 1.2 10.848 10.848 0 0 0-1.466.766l-1.584 1.083Z" data-name="Path 31407"/><path fill="#2a2c32" fill-rule="evenodd" d="m1184.084 123.631 4.14 4.787c1.426-.687 4.813-3.037 5.7-4.377a34.717 34.717 0 0 0-4.417-5.381c-1.637.687-4.952 3.446-5.421 4.978Z" data-name="Path 31408"/><path fill="#072b3e" fill-rule="evenodd" d="M501.478 157.609c2.119.706 4.978.29 7.282.29v-7.13l-7.051.02a13.012 13.012 0 0 0-.231 6.82Z" data-name="Path 31409"/><path fill="#2a2c32" fill-rule="evenodd" d="M1163.181 105.78c1.77 1.155 4.186 3.38 6.239 3.565l4.008-5.348-5.7-4.146c-1.968 1.505-3.262 3.961-4.549 5.929Z" data-name="Path 31410"/><path fill="#072b3e" fill-rule="evenodd" d="M1038.773 567.86a27.316 27.316 0 0 0 7.243 1.221l1-7.111-4.107-.522-3.572.059c0 2.086-.8 5.077-.561 6.352Z" data-name="Path 31411"/><path fill="#072b3e" fill-rule="evenodd" d="m1040.225 512.064-.264 2.324c2.152.812 5.137.35 7.388.35.938-3.9.257-4.252 0-7.13h-7.131v4.457Z" data-name="Path 31412"/><path fill="#2a2c32" fill-rule="evenodd" d="M1151.6 99.541c2.522.211 3.506 2.093 6.12 2.562l3.783-6.061-6.708-3.334c-1.182 1.928-3 4.648-3.2 6.84Z" data-name="Path 31413"/><path fill="#072b3e" fill-rule="evenodd" d="m1030.427 592.692 6.708 3.063c1.274-1.895 1.948-4.371 3.1-6.629l-7.1-2.733-1.987 4.773c-.238.561-.442.99-.707 1.519Z" data-name="Path 31414"/><path fill="#072b3e" fill-rule="evenodd" d="M1040.225 501.367h5.348l1.948-.165.337-2.053-.059-2.232a8.529 8.529 0 0 0-.449-2.674h-7.132v7.131Z" data-name="Path 31415"/><path fill="#072b3e" fill-rule="evenodd" d="m1024.142 604.067 5.856 3.75c1.228-.792 3.638-4.747 3.995-6.213-.086-.06-.218-.264-.264-.178l-2.859-1.6a7.575 7.575 0 0 0-3.559-1.347Z" data-name="Path 31416"/><path fill="#072b3e" fill-rule="evenodd" d="M1016.186 614.525c.033.033.165.04.2.185l2.37 2.126a11.642 11.642 0 0 0 3.242 2.185l4.424-5.381-6.167-4.575Z" data-name="Path 31417"/><path fill="#072b3e" fill-rule="evenodd" d="M1040.225 541.906h7.131a13.471 13.471 0 0 0 0-7.131h-7.131Z" data-name="Path 31418"/><path fill="#2a2c32" fill-rule="evenodd" d="m1192.139 133.847 3.671 5.685 6.239-3.262c-.258-1.842-.8-2.139-1.71-3.486l-2-2.978c-1.954 1.268-4.133 2.681-6.2 4.047Z" data-name="Path 31419"/><path fill="#072b3e" fill-rule="evenodd" d="M465.106 532.108c2.3 0 5.163.416 7.282-.291.271-.812-.152-5.262-.152-6.833l-7.051.02c-.64 1.182-.073 4.9-.073 7.111Z" data-name="Path 31420"/><path fill="#072b3e" fill-rule="evenodd" d="m960.039 648.376 1.618 6.391c1.347.416 6.008-.766 7.177-1.6l-1.373-5.077c-.053-.132-.185-.535-.238-.654a2.987 2.987 0 0 0-.5-.832 23.829 23.829 0 0 0-6.682 1.783Z" data-name="Path 31421"/><path fill="#072b3e" fill-rule="evenodd" d="m1035.326 580.669 7.071 1.987c.753-1.71 2.04-5.566 1.545-7.038-1.948-.64-4.787-1.136-6.833-1.631-.192 2.159-1.254 4.49-1.782 6.682Z" data-name="Path 31422"/><path fill="#2a2c32" fill-rule="evenodd" d="M1204.677 157.437a16.64 16.64 0 0 0 1.829 6.583l7.018-1.651c-.878-1.921-1.268-5.031-2.232-7.144l-6.616 2.212Z" data-name="Path 31423"/><path fill="#2a2c32" fill-rule="evenodd" d="m1139.122 94.192 6.589 1.684c.013-.02.356-.805.416-.924.733-1.6 1.756-3.453 1.915-5.216-2.436-1.235-4.377-1.6-6.682-2.674-1.1 2.192-2.225 4.536-2.225 7.131Z" data-name="Path 31424"/><path fill="#072b3e" fill-rule="evenodd" d="m996.682 632.226 3.9 5.46c2.159-.2 4.4-2.793 6.239-4.008-.528-.792-1.485-1.921-2.146-2.76l-2.311-2.588a8.655 8.655 0 0 0-3.044 1.855l-2.634 2.04Z" data-name="Path 31425"/><path fill="#072b3e" fill-rule="evenodd" d="m972.96 644.368 2.581 6.721 6.807-2.615-2.714-6.325c-1.967.059-4.747 1.334-6.682 2.225Z" data-name="Path 31426"/><path fill="#072b3e" fill-rule="evenodd" d="M947.118 650.158c0 2.78.449 4.674.449 7.13l6.754-.819a2.445 2.445 0 0 0 .819-.515l-1.122-6.4c-1.34-.376-4.774.614-6.9.607Z" data-name="Path 31427"/><path fill="#072b3e" fill-rule="evenodd" d="M552.422 115.578v7.131h7.131c0-2.251.462-5.242-.33-7.243-.073-.007-.185-.092-.211-.02l-6.583.132Z" data-name="Path 31428"/><path fill="#2a2c32" fill-rule="evenodd" d="M1209.51 183.734a45.934 45.934 0 0 0 .779 6.794c1.426.244 4.721-.112 6.794-.112v-7.131l-7.573.449Z" data-name="Path 31429"/><path fill="#072b3e" fill-rule="evenodd" d="M540.835 122.709h7.13v-7.131h-7.13Z" data-name="Path 31430"/><path fill="#072b3e" fill-rule="evenodd" d="M1040.555 480.873c-.779 1.677-.33 4.648-.33 6.682 2.3 0 5.163.416 7.283-.291a14.7 14.7 0 0 0-.152-6.391c-1.188 0-2.384.02-3.572.007l-2.489-.139c-.865-.007-.046-.119-.733.132Z" data-name="Path 31432"/><path fill="#072b3e" fill-rule="evenodd" d="M564.333 115.578c-.819 1.769-.33 4.985-.33 7.131h6.682v-7.131Z" data-name="Path 31433"/><path fill="#072b3e" fill-rule="evenodd" d="M439.264 532.108h4.01v-7.13h-4.01Z" data-name="Path 31437"/><path fill="#072b3e" fill-rule="evenodd" d="M494.063 532.108h4.01v-4.9l-.165-1.954-2.053-.337-1.789.06Z" data-name="Path 31438"/><path fill="#072b3e" fill-rule="evenodd" d="M936.872 657.731h4.008v-4.008c0-1.723-.3-1.538-.442-3.116h-3.566v7.131Z" data-name="Path 31439"/><path fill="#072b3e" fill-rule="evenodd" d="M1040.225 474.192h5.348l1.948-.165.2-3.1-2.139-.357-5.355.059Z" data-name="Path 31440"/><path fill="#a4a4a4" fill-rule="evenodd" d="M1104.823 87.96h.442v-2.674h-.442Z" data-name="Path 31443"/><text fill="#00406d" data-name="Startup &amp; Conceptualization" font-family="Poppins-SemiBold, Poppins" font-size="20" font-weight="600" transform="translate(237.002 308)"><tspan x="-144.33" y="0">Startup &amp; Conceptualization</tspan></text><text fill="#00406d" data-name="Design &amp; Layout" font-family="Poppins-SemiBold, Poppins" font-size="20" font-weight="600" transform="translate(613.002 308)"><tspan x="-81.79" y="0">Design &amp; Layout</tspan></text><text fill="#00406d" font-family="Poppins-SemiBold, Poppins" font-size="20" font-weight="600" transform="translate(1021.002 308)"><tspan x="-68.58" y="0">Development</tspan></text><text fill="#00406d" data-name="Publish &amp; Deployment" font-family="Poppins-SemiBold, Poppins" font-size="20" font-weight="600" transform="translate(1357.002 308)"><tspan x="-112.1" y="0">Publish &amp; Deployment</tspan></text><text fill="#00406d" font-family="Poppins-SemiBold, Poppins" font-size="20" font-weight="600" transform="translate(1579.002 308)"><tspan x="-67.4" y="0">Maintenance</tspan></text><g data-name="Group 7716"><path fill="#2b2a29" d="m1573.999 347.595-.278 5.514-.558-.042-4.821-.123v-5.52l5.1.129.558.042Zm17.044 2.471-1.106 5.41-2.723-.632-4.61-.823-3.435-.436.557-5.493 3.711.472 4.883.872 2.723.628Zm16.483 5.418-2.15 5.086-.592-.267-4.251-1.676-4.346-1.473-.961-.273 1.375-5.348 1.225.348 4.605 1.563 4.5 1.775.592.267Zm15.147 8.166-2.867 4.719-2.919-1.871-3.92-2.254-2.636-1.35 2.4-4.974 2.875 1.473 4.152 2.387 2.918 1.871Zm13.6 10.741-3.714 4.086-1.27-1.211-3.4-2.943-3.532-2.779-.06-.043 3.091-4.575.276.2 3.745 2.943 3.6 3.116 1.27 1.211Zm11.557 12.917-4.422 3.306-.043-.061-2.78-3.537-2.943-3.4-1.21-1.27 3.9-3.9 1.392 1.46 3.116 3.6 2.947 3.738.043.061Zm9.041 14.636-4.852 2.635-1.351-2.635-2.254-3.92-1.87-2.917 4.575-3.091 2.014 3.141 2.387 4.152 1.351 2.639Zm6.433 16.107-5.273 1.639-.274-.966-1.47-4.346-1.676-4.251-.266-.589 4.974-2.4.377.835 1.775 4.5 1.559 4.608.274.966Zm3.483 16.866-5.458.833-.437-3.443-.823-4.61-.627-2.717 5.348-1.375.689 2.986.872 4.883.437 3.443Zm.7 11.652h-5.521l-.122-4.821-.042-.55 5.493-.557.063.829.129 5.1Zm-.175 5.7-5.515-.278.046-.6.122-4.821h5.522l-.129 5.1-.046.6Zm-2.478 17.043-5.41-1.106.638-2.766.823-4.61.431-3.391 5.493.557-.466 3.668-.872 4.883Zm-5.425 16.48-5.086-2.15.286-.632 1.676-4.251 1.472-4.349.261-.919 5.348 1.375-.336 1.183-1.559 4.608-1.775 4.5-.286.632Zm-8.172 15.144-4.719-2.867 1.895-2.956 2.254-3.92 1.33-2.6 4.974 2.4-1.452 2.836-2.387 4.152-1.895 2.955Zm-10.75 13.598-4.086-3.714 1.241-1.3 2.943-3.4 2.78-3.537.017-.024 4.575 3.091-.171.24-2.943 3.745-3.116 3.6-1.241 1.3Zm-12.92 11.551-3.306-4.422.1-.069 3.537-2.78 3.4-2.943 1.238-1.18 3.9 3.9-1.428 1.362-3.6 3.116-3.745 2.943-.1.069Zm-14.642 9.033-2.635-4.852 2.678-1.372 3.92-2.254 2.88-1.847 3.091 4.575-3.1 1.99-4.152 2.387-2.678 1.372Zm-16.11 6.425-1.639-5.273 1.011-.286 4.349-1.472 4.251-1.676.548-.248 2.4 4.974-.794.359-4.5 1.775-4.608 1.559-1.009.286Zm-16.864 3.472-.833-5.458 3.487-.443 4.61-.823 2.674-.617 1.375 5.348-2.943.679-4.883.872-3.487.443Zm-11.608.7v-5.521l4.821-.122.506-.038.557 5.493-.785.06-5.1.129Zm-5.745-.178.278-5.514.646.049 4.821.122v5.521l-5.1-.129-.646-.049Zm-17.042-2.485 1.106-5.41 2.809.648 4.61.823 3.348.426-.557 5.493-3.624-.461-4.883-.872-2.809-.648Zm-16.477-5.434 2.15-5.086.672.3 4.251 1.676 4.349 1.472.876.249-1.375 5.348-1.14-.324-4.608-1.559-4.5-1.775-.672-.3Zm-15.141-8.174 2.867-4.719 2.992 1.919 3.92 2.254 2.558 1.31-2.4 4.974-2.788-1.438-4.152-2.387Zm-13.593-10.758 3.714-4.086 1.334 1.272 3.4 2.943 3.537 2.78-.012-.008-3.091 4.575-.2-.145-3.745-2.943-3.6-3.116-1.334-1.272Zm-11.544-12.929 4.422-3.306.094.133 2.78 3.537 2.943 3.4 1.147 1.203-3.9 3.9-1.332-1.4-3.116-3.6-2.943-3.745-.094-.133Zm-9.027-14.646 4.852-2.635 1.392 2.717 2.254 3.921 1.823 2.843-4.576 3.087-1.966-3.067-2.387-4.152-1.392-2.717Zm-6.417-16.112 5.273-1.639.3 1.052 1.472 4.349 1.676 4.251.23.508-4.974 2.4-.341-.754-1.775-4.5-1.559-4.608-.3-1.051Zm-3.47-16.866 5.458-.833.449 3.531.827 4.613.608 2.631-5.348 1.369-.669-2.9-.872-4.883-.453-3.528Zm-.69-11.564h5.522l.122 4.821.035.462-5.489.556-.056-.741-.129-5.1Zm.181-5.789 5.514.278-.052.69-.122 4.821h-5.52l.129-5.1.052-.69Zm2.492-17.042 5.409 1.106-.658 2.852-.823 4.61-.42 3.3-5.491-.552.455-3.58.872-4.883.658-2.852Zm5.442-16.474 5.086 2.15-.322.712-1.676 4.251-1.472 4.349-.237.834-5.348-1.375.312-1.1 1.559-4.608 1.775-4.5.322-.712Zm8.183-15.137 4.719 2.867-1.942 3.03-2.255 3.92-1.29 2.518-4.974-2.4 1.412-2.757 2.387-4.152Zm10.761-13.583 4.086 3.714-1.3 1.366-2.943 3.4-2.78 3.537.034-.047-4.575-3.091.12-.168 2.943-3.745 3.116-3.6 1.3-1.366Zm12.931-11.543 3.306 4.422-.169.12-3.537 2.78-3.4 2.943-1.174 1.119-3.9-3.9 1.365-1.3 3.6-3.116 3.745-2.943Zm14.649-9.022 2.635 4.852-2.754 1.413-3.92 2.254-2.806 1.8-3.091-4.575 3.029-1.942 4.152-2.387 2.757-1.412Zm16.119-6.408 1.639 5.273-1.094.31-4.349 1.472-4.251 1.676-.468.212-2.4-4.974.714-.323 4.508-1.773 4.608-1.559Zm16.867-3.459.833 5.458-3.574.454-4.61.823-2.584.597-1.379-5.347 2.857-.659 4.883-.872 3.574-.454Zm11.521-.688v5.52l-4.821.122-.418.032-.557-5.492.7-.053 5.1-.129Z" data-name="Path 31939"/></g><g transform="translate(1506.86 385.022)"><circle cx="47.515" cy="47.515" r="47.515" fill="#08bfe6" data-name="Ellipse 159" transform="translate(18.08 16.25)"/><path fill="#1d2126" fill-rule="evenodd" d="M30.584 34.133c.53.712.412.134 1.041.633.411.326.37.594.657.877.34.337.594.192.9.751.358.646-.063.337.738.947l1.96 2.147c.293.219.218.073.5.272.388.275.335.563.635.9.33.377.549.271.928.74.5.615.211.278.817.727l1.615 1.72c1.037 1.328.3-.039 1.565 1.642.422.563-.011.038.512.391a1.343 1.343 0 0 1 .389.378c1.032 1.262.405.277 1.523 1.689a7.412 7.412 0 0 0 .825.712c.372.352.34.62.768.9.724.471.338.077.874.8l2.434 2.445c.554.795.549.405 1.208 1.231a1.723 1.723 0 0 0 .372.4l.682.859 4.573 4.137c.5.131.547.438.784.777.473.68.493.126 1.01.483l.719.022c.948-1.894.361-.788 1.287-1.4.307-.2.246-.387.694-.729 1.292-.989 3.716.05-13.056-15.473l-2.248-2.243c-.562-.518-.5-.341-.95-.988-.374-.54-.484-.3-.9-.761-.331-.365-.262-.467-.737-.792s-.09.113-.494-.423c-3.963-5.244-10.143-10.613-14.853-15.432-1.143-1.169-3.8-4.581-4.9-5.089a2.593 2.593 0 0 1-.264-.143c-.554-.683.259-7.343-.372-8.247C20.978 8.164 9.39.207 7.604.011 5.511-.218 2.831 4.077 1.252 5.274L-.004 7.029c.175.592.286.422.637.829 1.8 2.082 6.494 13.38 9.036 13.4 6.677.042 6 .135 11.268 3.65.43.273.285-.053.885.662 2.415 2.879 6.658 5.748 8.759 8.569ZM16.606 15.751c.078-4.751-4.8-8.035-8.977-9-.02.026-.047.036-.055.083-.714 3.452 1.783 7.35 4.866 9.234a4.593 4.593 0 0 0 2.255.3 2.812 2.812 0 0 0 1.912-.616Z" data-name="Path 31940"/><path fill="#4fbae8" fill-rule="evenodd" d="m63.484 82.035.551.159c.75.332.493.459.728.9.142.268.1.188.3.359l.15.107c.437.326.585.385.811.847.309.637 0 .307.562.726.733.546.208.489 1.25 1.315.6.475.127.34 1.02 1.035l.639.519a2.415 2.415 0 0 1 .323.319l1.473 1.74c1.538 1.55.793.369 2.261 2.209.914.091.835.04 1.122.55.564 1.008.477.648 1.166 1.29l.957 1.09c.015.024.032.058.047.082s.032.058.047.082c.469.746.144.209.737.681l.592.438c1.153.765 1.418 1.721 2.365 2.265l.362.258c.287.366-.024.209.381.65l1.25 1.192c1.007.969.592.759 1.34 1.359a11.677 11.677 0 0 0 1.482 1.356c.507.271.294-.007.59.648l.4.526c.408.346.582.39.614 1.123.528.109.211.02.5.2.513.313.322.761.821 1.106.287.2.57.2.8.477a2.376 2.376 0 0 1 .227.414c.1.173.01.077.159.231.386.4.643.2.936.726.47.837.365.405 1.026.912l.229.27c.412.661.016.42.731.828.516.294.352.218.586.679.32.627.692.369 1.044.885a2.282 2.282 0 0 0 1.027 1.036c.423.285.244.363.513.764.211.314.428.312.734.552.466.365.232.38.506.776.2.285.094.163.364.281l.553.215c.389.387.135.483.551.86.279.252.548.241.8.6.484.688-.119.359.7.734.516.237.409.2.661.728.389.811.1.263.719.7.337.24.324.473.616.8.572.634.821.541 1.389 1.431h3.954c.284-.464.332-.876.792-1.148.313-.185.335-.107.632-.4.188-.182.263-.359.452-.575.52-.6.572-.125 1.1-.941.479-.733.6-.309 1.042-1.016.561-.9.453-.42 1-.929.385-.355.375-.771.866-1.181.206-.172.078-.008.281-.237l.2-.319c.2-.316.139-.29.545-.471 1.141-.51.366-.482.889-1.171.305-.4.676-.271 1.066-.861.644-.975.929-.556 1.5-1.578.276-.493-.03-.175.552-.451l1.667-1.428c.2-.25.146-.409.375-.654.688-.737.374.486 1.207-1.36a2.486 2.486 0 0 0 .386-1.175c.156-1.539.185-2.784-1.125-3.819-.021-.016-.052-.037-.072-.054l-.134-.118c-.065-.065-.15-.186-.225-.281l-.937-1.125c-.028-.025-.109-.1-.136-.121l-.068-.061-2.371-2.383c-.381-.279-.229-.081-.517-.5l-.688-.858c-.768-1.155-.557-.34-1.29-1.276l-1.786-1.807a6.18 6.18 0 0 1-1.249-1.191l-3.1-3.063c-.709-.6-.665-.879-1.511-1.568l-.509-.535c-.584-.083-.24-.111-.7-.57-.61-.614-.2.144-1.347-1.222-.852-1.015-.621.194-1.215-1.225-.234-.56-.243-.374-.676-.6-.629-.33-.532-.957-1.407-1.043a1.753 1.753 0 0 0-.208-.818l-1.3-1.128c-.02-.018-.045-.046-.065-.064-.463-.419-.653-.361-.857-.559-.328-.318-.26-.833-.906-1.151-.3-.147-.362-.065-.632-.219-.289-.614-.022-.521-.587-.995-1.345-1.127-.091-.477-1.549-1.528-.553-.4-.315-.466-.686-.858-.5-.526-.482.076-1.073-.85-.366-.574-.489-.433-.807-.737l-.326-.443c-.579-.8-.565-.464-1.029-.9l-.73-.812c-1.076-.862-.247-.226-1.052-1.13-.364-.409-.584-.429-.866-.8-1.136-1.5-.5-.35-1.265-1.046-.426-.389.1-.189-.766-.783-.584-.4-.191-.414-.65-.883a1.661 1.661 0 0 0-.935-.478c-.1-1.182-.422-1.046-.857-1.32-.583-.369-.656-.871-.955-1.1-.333-.26-.65-.063-.65-.747-1.468-.412-1.325-.768-1.752-1.333-.258-.341-.458-.3-.827-.722-.293-.338-.324-.528-.649-.769a11.2 11.2 0 0 0-2.14 1.847c-.446.613-.43.234-.9.768l-.856.945a3.335 3.335 0 0 1-.791.767c-1.528.869-.925 1.094-1.816 1.647-.43.268-.267-.006-.6.392l-2.788 2.894c-1.8 1.47-1.745 2.183-2.845 2.822-.79.458-.429.615-1 1.151a14.529 14.529 0 0 0-1.722 1.736c-.982 1.286-.474.4-1.138 1.05-.256.249-.292.385-.522.631-1.261 1.354-1.531 1.044.419 3 .544.546.194.37.734.934.185.192.034 0 .192.2.494.622.026.387.563.671Z" data-name="Path 31941"/><path fill="#1d2126" fill-rule="evenodd" d="M107.41 110.518c-.34-.4-.915-.722-1.28-1.128a1.911 1.911 0 0 0-.33-.31 12.892 12.892 0 0 1-2.176-2.189c-.4-.536-.841-.47-1.218-1.086-.358-.585-.828-.542-1.364-1.331-.5-.731-1.866-1.569-2.579-2.555a1.944 1.944 0 0 0-.654-.639l-.626-.653c-.936-1.107-1.462-1.135-1.945-1.771l-1.774-1.957c-.256-.247-.465-.279-.7-.58-.3-.387-.146-.4-.568-.725-.527-.4-1-1.1-1.54-1.536l-.637-.643c-.227-.236-.058-.107-.343-.307a13.735 13.735 0 0 1-1.555-1.648c-.144-.141-.211-.225-.309-.333-.425-.47-.243-.232-.742-.549l-1.932-1.775a18.758 18.758 0 0 0-2.481-2.53 5.625 5.625 0 0 0-.609-.68c-.337-.275-.363-.167-.655-.492l-1.217-1.344c-.425-.614-.252-.261-.674-.625-.234-.2-.347-.4-.641-.646-1.336-1.134-1.3-1.559-1.857-1.989-.354-.274-1.6-1.722-2.539-2.467-.523-.417-.706-.929-1.285-1.288l-.4-.239c-.886-.644-2.034-2.9-3.375-1.855-.681.532-1.019.6-1.382 1.189-.4.66-.157.214-.687.611a1.447 1.447 0 0 0 .079 2.093l6.571 6.646a1.722 1.722 0 0 1 .314.334l1 .925a3.172 3.172 0 0 1 .286.359l2.809 2.836c.236.247.418.4.643.642l.577.7c.329.313.518.273.754.681.55.949.357.478 1.12 1.165.327.294.278.412.577.709l.619.534c.327.295 0 0 .355.276l.656.634c.27.221.073-.012.357.294l.944.976c.111.091.218.2.333.311.246.241.381.388.637.649l.7.854c.015.023.033.057.047.08l.4.468c.067.05.156.085.315.2l4.876 4.633c.423.382.684.914 1.157 1.276a3.22 3.22 0 0 1 .664.629l8.839 8.874c.734.832 1.461.153 2.029-.387l.861-1.062c.855-.882 1.436-.77 1.558-2.264Z" data-name="Path 31942"/><path fill="#1d2126" fill-rule="evenodd" d="M74.464 69.324c-.123 2.362-.241 1.376.9 2.541.192.2.239.4.486.669.227.245.475.376.683.6a3.268 3.268 0 0 0 1.312 1.022c.473.268.165.228.469.646.478.655.365.149.835.485.362.258.126.3.42.706a6.471 6.471 0 0 0 .582.577l1.713 1.873c.483.755.407.087 1.192 1.252.246.365.015.109.32.34l.24.149c.576.357.439.6.875 1.038.027.027.109.1.14.122.465.349.525.222.824.7s.183.327.7.613c.467.257.352.223.635.62l.593.571c.67.587.167.718 1.078 1.362l.3.212c.3.267.2.315.374.527a.818.818 0 0 0 .058.072.916.916 0 0 0 .067.063s.406.209.431.221c1.033.5.386.774 1.077 1.345.284.234.34.16.657.5.283.3.294.467.609.679.375.252.377.056.7.447.268.323.161.513.492.8.364.311.375.061.752.4s.06.263.427.723c.272.339.313.194.64.521s.246.435.548.734a5.242 5.242 0 0 0 .678.48l.331.3a10.266 10.266 0 0 0 .982.82c.178.177.339.531.521.756.329.406.289.223.617.545.517.508.355.605 1.114 1.2.469.364.249.371.563.721l.686.47c.55.457.361.817 1.189 1.247.683.355.176.063.563.72.265.449.229.227.7.466a1.491 1.491 0 0 1 .565.577c.372.536.645.434.968.96.932 1.52.27.25 1.378 1.579.262.315.327.239.674.484.508.358.11.307 1.133 1.308.5.486.49.881 1.081 1.214.259.146.19.064.405.245.544.453.947 1.383 1.842.549.337-.314.062-.272.583-.579.906-.533.626-.653 1.274-1.165a1.576 1.576 0 0 0 .219-2.467 39.174 39.174 0 0 0-.572-.574l-1.882-1.847c-.535-.573-.786-.488-1.2-1.108-.271-.4-.626-.51-.913-.889l-.918-.869c-.55-.373-.5-.743-1.191-1.247l-3.023-3.016c-.459-.691-.82-.392-1.209-1.239-.291-.635-.769-.745-1.179-1.254-.375-.465-.874-.646-1.223-1.083-.24-.3-.17-.4-.486-.665s-.417-.172-.742-.545c-.267-.305-.173-.34-.524-.629-.307-.253-.45-.245-.687-.6a2.569 2.569 0 0 0-.846-.939l-.688-.734c-.244-.323-.583-.376-.872-.663-.392-.389-.371-.719-.8-.986-.562-.347-.683-.821-1.2-1.241-.178-.144-.213-.162-.36-.278l-1.265-1.184a28.649 28.649 0 0 1-.225-.285l-1.44-1.514c-.663-.769-.611 0-1.2-1.243-.213-.448-.266-.339-.663-.6-.6-.393-.365-.57-.964-.851-.71-.333-.964-.934-1.576-1.376-.493-.356-.731-.853-1.251-1.191-.468-.3-.44-.6-.792-.99-.406-.447.047 0-.4-.26-.622-.362-.377-.961-1.025-1.394-.243-.162-.076-.016-.31-.206l-.541-.622c-.065-.067-.257-.217-.349-.291-.474-.384-.714-.886-1.172-1.263-.341-.281-.3-.109-.583-.6-.41-.694-.8-.584-1.337-1.082-.385-.357-.143-.4-.544-.739-.556.055-.764.536-1.161.824-.713.52-.471.651-.937 1.246-.362.461-.43.21-.937.469Z" data-name="Path 31943"/><path fill="#072b3e" fill-rule="evenodd" d="m35.309 86.615 54.784-55.3c-.179-2.856-2.485-7.1.77-13.045 2.128-3.88 8.092-8.5 12.441-7.626l-7.789 7.863c1.053 1.213 2.558 8.784 3.137 10.943 1.4.777 10.5 3.089 11.8 2.813l7.268-7.337c1.123 5.376-5.6 14.065-13.759 14.293-2.141.064-4.993-.96-6.526-.63L42.91 93.632c-.232 1.147.731 4.479.692 6.52-.131 8.283-8.931 14.936-14.163 13.893l7.269-7.338c.283-1.374-2.1-10.313-2.924-11.771-2.129-.547-9.938-2.842-11.491-2.509l-7.269 7.338c-.763-4.412 3.271-9.929 7.245-12.356 4.111-2.51 8.45-2.268 13.042-.789Zm8.933 26.5c7.555-8.318 4.481-16.442 5.1-17.8l49.813-50.364c6.569-.02 11.618.634 18.058-5.479a19.21 19.21 0 0 0 1.185-1.1 19.078 19.078 0 0 0 5.462-11.92c.238-3.667-.215-10.241-2.8-13.292l-12.4 12.509-4.786-.864-1.319-5 12.471-12.622c-8.111-4.942-20.45-3.418-26.507 4.383-7.534 8.469-4.518 16.767-5 17.9L33.613 79.822c-6.623-.641-12.9.115-18.027 5.425-7.6 5.546-8.616 18.611-3.9 26.26l12.465-12.582 4.981 1.233.954 3.962c.186.876.063.262.1.784l-12.462 12.58a33.232 33.232 0 0 0 6.53 2.334 20.121 20.121 0 0 0 18.84-5.438c.4-.4.783-.828 1.149-1.264Z" data-name="Path 31148"/></g><g fill="#072b3e" fill-rule="evenodd" data-name="Group 7717"><path d="M1570.495 99.926a32.945 32.945 0 0 0-2.549-10.176l-.7-1.5c-4.233-9.454-16.275-16.847-27.907-16.847v-7.022c11.021 0 18.518 3.375 26.652 10.2 6.242 5.241 11.957 17.393 11.957 25.332l-.163 143.622c-3.179.52-3.9.312-7.295.273V99.92Z" data-name="Path 31947"/><path d="M1642.302 152.129v1.755h-7.458c0-8.875-7.334-15.351-14.48-15.351a18.464 18.464 0 0 0-10.683 2.913l-1.925 2.022a15.316 15.316 0 0 0-4.506 10.852v114.066c-2.191 0-5.1-.442-7.015.436V167.04c0-7.724-1.2-16.613 2.184-23.258a22.96 22.96 0 0 1 13.954-11.5c16.677-4.272 29.928 8.01 29.928 19.838Z" data-name="Path 31948"/><path d="M1546.967 270.148c-2.367-5.1 2.562-50.9-2.354-59.825-7.366-13.381-27.776-12.3-33.752 1.671-.975 2.289-.748 4.707-1.359 6.534-1.671.559-2.419.123-4.077.325-1.756.208-5.293 2.2-1.944-7.659 6.613-19.473 30.878-22.425 43.056-10.254 9.22 9.213 7.562 18.362 7.562 31.041v38.6c-2.171.003-5.37.51-7.132-.433Z" data-name="Path 31949"/></g></g></g></svg>