<svg xmlns="http://www.w3.org/2000/svg" width="36.521" height="36.522" viewBox="0 0 36.521 36.522">
  <g id="Group_22" data-name="Group 22" transform="translate(-2809 -3270)">
    <path id="Path_10732" data-name="Path 10732" d="M2272.57,36.522h-21.481a7.52,7.52,0,0,1-7.52-7.52V7.52a7.52,7.52,0,0,1,7.52-7.52h21.481a7.52,7.52,0,0,1,7.52,7.52V29a7.52,7.52,0,0,1-7.52,7.52" transform="translate(565.431 3270)" fill="#065885"/>
    <g id="Twitter_and_X_logos" transform="translate(2790.188 3277.714)">
      <path id="path1-7" d="M292.575,9.11,300.327.286H298.49l-6.734,7.66L286.382.286h-6.2l8.129,11.585-8.129,9.253h1.837l7.107-8.091,5.677,8.091H301Zm-2.516,2.862-.825-1.154-6.553-9.176H285.5l5.29,7.408.821,1.154,6.875,9.629h-2.821Z" transform="translate(-253.37)" fill="#fff"/>
    </g>
  </g>
</svg>
